solid STL generated by MeshLab
  facet normal  0.000000e+00  0.000000e+00 -1.000000e+00
    outer loop
      vertex   4.972720e-01  5.768763e-02 -5.000000e-01
      vertex   4.960266e-01 -8.185621e-02 -5.000000e-01
      vertex  -4.994047e-01 -4.188664e-02 -5.000000e-01
    endloop
  endfacet
  facet normal  0.000000e+00 -0.000000e+00 -1.000000e+00
    outer loop
      vertex   4.696330e-01  1.769633e-01 -5.000000e-01
      vertex   4.972720e-01  5.768763e-02 -5.000000e-01
      vertex  -4.994047e-01 -4.188664e-02 -5.000000e-01
    endloop
  endfacet
  facet normal  0.000000e+00  0.000000e+00 -1.000000e+00
    outer loop
      vertex  -4.994047e-01 -4.188664e-02 -5.000000e-01
      vertex   4.025562e-01  2.985094e-01 -5.000000e-01
      vertex   4.696330e-01  1.769633e-01 -5.000000e-01
    endloop
  endfacet
  facet normal  0.000000e+00 -0.000000e+00 -1.000000e+00
    outer loop
      vertex   3.390074e-01  3.678181e-01 -5.000000e-01
      vertex   4.025562e-01  2.985094e-01 -5.000000e-01
      vertex  -4.994047e-01 -4.188664e-02 -5.000000e-01
    endloop
  endfacet
  facet normal  0.000000e+00  0.000000e+00 -1.000000e+00
    outer loop
      vertex  -4.994047e-01 -4.188664e-02 -5.000000e-01
      vertex   2.797310e-01  4.151597e-01 -5.000000e-01
      vertex   3.390074e-01  3.678181e-01 -5.000000e-01
    endloop
  endfacet
  facet normal  0.000000e+00  0.000000e+00 -1.000000e+00
    outer loop
      vertex  -4.994047e-01 -4.188664e-02 -5.000000e-01
      vertex   1.569754e-01  4.775997e-01 -5.000000e-01
      vertex   2.797310e-01  4.151597e-01 -5.000000e-01
    endloop
  endfacet
  facet normal  0.000000e+00  0.000000e+00 -1.000000e+00
    outer loop
      vertex  -4.994047e-01 -4.188664e-02 -5.000000e-01
      vertex   1.926791e-02  5.002359e-01 -5.000000e-01
      vertex   1.569754e-01  4.775997e-01 -5.000000e-01
    endloop
  endfacet
  facet normal  0.000000e+00  0.000000e+00 -1.000000e+00
    outer loop
      vertex  -4.994047e-01 -4.188664e-02 -5.000000e-01
      vertex  -1.331341e-01  4.858492e-01 -5.000000e-01
      vertex   1.926791e-02  5.002359e-01 -5.000000e-01
    endloop
  endfacet
  facet normal  0.000000e+00 -0.000000e+00 -1.000000e+00
    outer loop
      vertex  -2.732917e-01  4.194266e-01 -5.000000e-01
      vertex  -1.331341e-01  4.858492e-01 -5.000000e-01
      vertex  -4.994047e-01 -4.188664e-02 -5.000000e-01
    endloop
  endfacet
  facet normal  0.000000e+00 -0.000000e+00 -1.000000e+00
    outer loop
      vertex  -3.786373e-01  3.307208e-01 -5.000000e-01
      vertex  -2.732917e-01  4.194266e-01 -5.000000e-01
      vertex  -4.994047e-01 -4.188664e-02 -5.000000e-01
    endloop
  endfacet
  facet normal  0.000000e+00 -0.000000e+00 -1.000000e+00
    outer loop
      vertex  -4.531586e-01  2.127312e-01 -5.000000e-01
      vertex  -3.786373e-01  3.307208e-01 -5.000000e-01
      vertex  -4.994047e-01 -4.188664e-02 -5.000000e-01
    endloop
  endfacet
  facet normal  0.000000e+00 -0.000000e+00 -1.000000e+00
    outer loop
      vertex  -4.924484e-01  9.677713e-02 -5.000000e-01
      vertex  -4.531586e-01  2.127312e-01 -5.000000e-01
      vertex  -4.994047e-01 -4.188664e-02 -5.000000e-01
    endloop
  endfacet
  facet normal  0.000000e+00  0.000000e+00 -1.000000e+00
    outer loop
      vertex  -4.361871e-01 -2.467804e-01 -5.000000e-01
      vertex  -4.782028e-01 -1.480838e-01 -5.000000e-01
      vertex  -4.994047e-01 -4.188664e-02 -5.000000e-01
    endloop
  endfacet
  facet normal  0.000000e+00  0.000000e+00 -1.000000e+00
    outer loop
      vertex  -3.628198e-01 -3.457184e-01 -5.000000e-01
      vertex  -4.361871e-01 -2.467804e-01 -5.000000e-01
      vertex  -4.994047e-01 -4.188664e-02 -5.000000e-01
    endloop
  endfacet
  facet normal  0.000000e+00  0.000000e+00 -1.000000e+00
    outer loop
      vertex  -4.994047e-01 -4.188664e-02 -5.000000e-01
      vertex  -2.420609e-01 -4.406241e-01 -5.000000e-01
      vertex  -3.628198e-01 -3.457184e-01 -5.000000e-01
    endloop
  endfacet
  facet normal  0.000000e+00  0.000000e+00 -1.000000e+00
    outer loop
      vertex  -4.994047e-01 -4.188664e-02 -5.000000e-01
      vertex  -9.638589e-02 -4.918022e-01 -5.000000e-01
      vertex  -2.420609e-01 -4.406241e-01 -5.000000e-01
    endloop
  endfacet
  facet normal  0.000000e+00  0.000000e+00 -1.000000e+00
    outer loop
      vertex  -2.722079e-03 -5.002091e-01 -5.000000e-01
      vertex  -9.638589e-02 -4.918022e-01 -5.000000e-01
      vertex  -4.994047e-01 -4.188664e-02 -5.000000e-01
    endloop
  endfacet
  facet normal  0.000000e+00  0.000000e+00 -1.000000e+00
    outer loop
      vertex  -4.994047e-01 -4.188664e-02 -5.000000e-01
      vertex   7.297439e-02 -4.952595e-01 -5.000000e-01
      vertex  -2.722079e-03 -5.002091e-01 -5.000000e-01
    endloop
  endfacet
  facet normal  0.000000e+00  0.000000e+00 -1.000000e+00
    outer loop
      vertex  -4.994047e-01 -4.188664e-02 -5.000000e-01
      vertex   1.769557e-01 -4.688775e-01 -5.000000e-01
      vertex   7.297439e-02 -4.952595e-01 -5.000000e-01
    endloop
  endfacet
  facet normal -0.000000e+00  0.000000e+00 -1.000000e+00
    outer loop
      vertex   2.859735e-01 -4.115562e-01 -5.000000e-01
      vertex   1.769557e-01 -4.688775e-01 -5.000000e-01
      vertex  -4.994047e-01 -4.188664e-02 -5.000000e-01
    endloop
  endfacet
  facet normal -0.000000e+00  0.000000e+00 -1.000000e+00
    outer loop
      vertex   3.982783e-01 -3.067851e-01 -5.000000e-01
      vertex   2.859735e-01 -4.115562e-01 -5.000000e-01
      vertex  -4.994047e-01 -4.188664e-02 -5.000000e-01
    endloop
  endfacet
  facet normal -0.000000e+00  0.000000e+00 -1.000000e+00
    outer loop
      vertex   4.595825e-01 -1.974852e-01 -5.000000e-01
      vertex   3.982783e-01 -3.067851e-01 -5.000000e-01
      vertex  -4.994047e-01 -4.188664e-02 -5.000000e-01
    endloop
  endfacet
  facet normal -0.000000e+00  0.000000e+00 -1.000000e+00
    outer loop
      vertex   4.960266e-01 -8.185621e-02 -5.000000e-01
      vertex   4.595825e-01 -1.974852e-01 -5.000000e-01
      vertex  -4.994047e-01 -4.188664e-02 -5.000000e-01
    endloop
  endfacet
  facet normal -9.987389e-01  5.010305e-02 -3.198659e-03
    outer loop
      vertex  -4.994047e-01 -4.188664e-02 -5.000000e-01
      vertex  -4.983274e-01  4.343001e-02  5.000000e-01
      vertex  -4.924484e-01  9.677713e-02 -5.000000e-01
    endloop
  endfacet
  facet normal -9.860230e-01  1.665806e-01  3.089838e-03
    outer loop
      vertex  -4.983274e-01  4.343001e-02  5.000000e-01
      vertex  -4.832072e-01  1.329291e-01  5.000000e-01
      vertex  -4.924484e-01  9.677713e-02 -5.000000e-01
    endloop
  endfacet
  facet normal -9.471032e-01  3.209164e-01 -2.849381e-03
    outer loop
      vertex  -4.924484e-01  9.677713e-02 -5.000000e-01
      vertex  -4.832072e-01  1.329291e-01  5.000000e-01
      vertex  -4.531586e-01  2.127312e-01 -5.000000e-01
    endloop
  endfacet
  facet normal -9.314308e-01  3.639169e-01  1.053079e-03
    outer loop
      vertex  -4.832072e-01  1.329291e-01  5.000000e-01
      vertex  -4.489848e-01  2.205200e-01  5.000000e-01
      vertex  -4.531586e-01  2.127312e-01 -5.000000e-01
    endloop
  endfacet
  facet normal -8.687410e-01  4.952666e-01 -2.316312e-04
    outer loop
      vertex  -4.489848e-01  2.205200e-01  5.000000e-01
      vertex  -4.184843e-01  2.740205e-01  5.000000e-01
      vertex  -4.531586e-01  2.127312e-01 -5.000000e-01
    endloop
  endfacet
  facet normal -8.454791e-01  5.339976e-01 -3.412017e-03
    outer loop
      vertex  -4.531586e-01  2.127312e-01 -5.000000e-01
      vertex  -4.184843e-01  2.740205e-01  5.000000e-01
      vertex  -3.786373e-01  3.307208e-01 -5.000000e-01
    endloop
  endfacet
  facet normal -7.773977e-01  6.289919e-01  4.687026e-03
    outer loop
      vertex  -4.184843e-01  2.740205e-01  5.000000e-01
      vertex  -3.422252e-01  3.682725e-01  5.000000e-01
      vertex  -3.786373e-01  3.307208e-01 -5.000000e-01
    endloop
  endfacet
  facet normal -6.441000e-01  7.649232e-01 -5.271077e-03
    outer loop
      vertex  -3.786373e-01  3.307208e-01 -5.000000e-01
      vertex  -3.422252e-01  3.682725e-01  5.000000e-01
      vertex  -2.732917e-01  4.194266e-01 -5.000000e-01
    endloop
  endfacet
  facet normal -5.675747e-01  8.233165e-01  2.991131e-03
    outer loop
      vertex  -3.422252e-01  3.682725e-01  5.000000e-01
      vertex  -2.390475e-01  4.394006e-01  5.000000e-01
      vertex  -2.732917e-01  4.194266e-01 -5.000000e-01
    endloop
  endfacet
  facet normal -4.282533e-01  9.036524e-01 -3.384450e-03
    outer loop
      vertex  -2.732917e-01  4.194266e-01 -5.000000e-01
      vertex  -2.390475e-01  4.394006e-01  5.000000e-01
      vertex  -1.331341e-01  4.858492e-01 -5.000000e-01
    endloop
  endfacet
  facet normal -3.873183e-01  9.219443e-01  1.800753e-03
    outer loop
      vertex  -2.390475e-01  4.394006e-01  5.000000e-01
      vertex  -1.272736e-01  4.863580e-01  5.000000e-01
      vertex  -1.331341e-01  4.858492e-01 -5.000000e-01
    endloop
  endfacet
  facet normal -1.011557e-01  9.948707e-01  8.658750e-05
    outer loop
      vertex  -1.272736e-01  4.863580e-01  5.000000e-01
      vertex   1.155310e-02  5.004736e-01  5.000000e-01
      vertex  -1.331341e-01  4.858492e-01 -5.000000e-01
    endloop
  endfacet
  facet normal -9.398193e-02  9.955735e-01 -9.616443e-04
    outer loop
      vertex  -1.331341e-01  4.858492e-01 -5.000000e-01
      vertex   1.155310e-02  5.004736e-01  5.000000e-01
      vertex   1.926791e-02  5.002359e-01 -5.000000e-01
    endloop
  endfacet
  facet normal  1.449403e-01  9.894400e-01  8.830524e-04
    outer loop
      vertex   1.155310e-02  5.004736e-01  5.000000e-01
      vertex   1.478202e-01  4.805122e-01  5.000000e-01
      vertex   1.926791e-02  5.002359e-01 -5.000000e-01
    endloop
  endfacet
  facet normal  1.622023e-01  9.867565e-01 -1.388952e-03
    outer loop
      vertex   1.926791e-02  5.002359e-01 -5.000000e-01
      vertex   1.478202e-01  4.805122e-01  5.000000e-01
      vertex   1.569754e-01  4.775997e-01 -5.000000e-01
    endloop
  endfacet
  facet normal  4.465880e-01  8.947385e-01  1.482664e-03
    outer loop
      vertex   1.478202e-01  4.805122e-01  5.000000e-01
      vertex   2.859735e-01  4.115562e-01  5.000000e-01
      vertex   1.569754e-01  4.775997e-01 -5.000000e-01
    endloop
  endfacet
  facet normal  4.533729e-01  8.913209e-01  3.817172e-04
    outer loop
      vertex   1.569754e-01  4.775997e-01 -5.000000e-01
      vertex   2.859735e-01  4.115562e-01  5.000000e-01
      vertex   2.797310e-01  4.151597e-01 -5.000000e-01
    endloop
  endfacet
  facet normal  6.240557e-01  7.813792e-01 -1.079958e-03
    outer loop
      vertex   2.797310e-01  4.151597e-01 -5.000000e-01
      vertex   2.859735e-01  4.115562e-01  5.000000e-01
      vertex   3.390074e-01  3.678181e-01 -5.000000e-01
    endloop
  endfacet
  facet normal  6.528006e-01  7.575284e-01  1.487687e-03
    outer loop
      vertex   2.859735e-01  4.115562e-01  5.000000e-01
      vertex   3.572067e-01  3.501709e-01  5.000000e-01
      vertex   3.390074e-01  3.678181e-01 -5.000000e-01
    endloop
  endfacet
  facet normal  7.370695e-01  6.758153e-01 -1.487956e-03
    outer loop
      vertex   3.390074e-01  3.678181e-01 -5.000000e-01
      vertex   3.572067e-01  3.501709e-01  5.000000e-01
      vertex   4.025562e-01  2.985094e-01 -5.000000e-01
    endloop
  endfacet
  facet normal  7.680390e-01  6.404008e-01  1.746064e-03
    outer loop
      vertex   3.572067e-01  3.501709e-01  5.000000e-01
      vertex   4.153359e-01  2.804560e-01  5.000000e-01
      vertex   4.025562e-01  2.985094e-01 -5.000000e-01
    endloop
  endfacet
  facet normal  8.755233e-01  4.831696e-01 -2.466105e-03
    outer loop
      vertex   4.025562e-01  2.985094e-01 -5.000000e-01
      vertex   4.153359e-01  2.804560e-01  5.000000e-01
      vertex   4.696330e-01  1.769633e-01 -5.000000e-01
    endloop
  endfacet
  facet normal  8.912358e-01  4.535380e-01  1.453684e-03
    outer loop
      vertex   4.153359e-01  2.804560e-01  5.000000e-01
      vertex   4.711952e-01  1.706884e-01  5.000000e-01
      vertex   4.696330e-01  1.769633e-01 -5.000000e-01
    endloop
  endfacet
  facet normal  9.749404e-01  2.224663e-01 -1.270200e-04
    outer loop
      vertex   4.711952e-01  1.706884e-01  5.000000e-01
      vertex   4.985973e-01  5.060065e-02  5.000000e-01
      vertex   4.696330e-01  1.769633e-01 -5.000000e-01
    endloop
  endfacet
  facet normal  9.741871e-01  2.257416e-01  3.086702e-04
    outer loop
      vertex   4.696330e-01  1.769633e-01 -5.000000e-01
      vertex   4.985973e-01  5.060065e-02  5.000000e-01
      vertex   4.972720e-01  5.768763e-02 -5.000000e-01
    endloop
  endfacet
  facet normal  9.999592e-01 -8.924283e-03 -1.388561e-03
    outer loop
      vertex   4.972720e-01  5.768763e-02 -5.000000e-01
      vertex   4.985973e-01  5.060065e-02  5.000000e-01
      vertex   4.960266e-01 -8.185621e-02 -5.000000e-01
    endloop
  endfacet
  facet normal  9.991007e-01 -4.229119e-02  3.033323e-03
    outer loop
      vertex   4.985973e-01  5.060065e-02  5.000000e-01
      vertex   4.921018e-01 -1.028520e-01  5.000000e-01
      vertex   4.960266e-01 -8.185621e-02 -5.000000e-01
    endloop
  endfacet
  facet normal  9.537460e-01 -3.006027e-01 -2.568132e-03
    outer loop
      vertex   4.960266e-01 -8.185621e-02 -5.000000e-01
      vertex   4.921018e-01 -1.028520e-01  5.000000e-01
      vertex   4.595825e-01 -1.974852e-01 -5.000000e-01
    endloop
  endfacet
  facet normal  9.389465e-01 -3.440571e-01  2.025370e-03
    outer loop
      vertex   4.921018e-01 -1.028520e-01  5.000000e-01
      vertex   4.489848e-01 -2.205200e-01  5.000000e-01
      vertex   4.595825e-01 -1.974852e-01 -5.000000e-01
    endloop
  endfacet
  facet normal  8.721766e-01 -4.891868e-01 -2.025265e-03
    outer loop
      vertex   4.595825e-01 -1.974852e-01 -5.000000e-01
      vertex   4.489848e-01 -2.205200e-01  5.000000e-01
      vertex   3.982783e-01 -3.067851e-01 -5.000000e-01
    endloop
  endfacet
  facet normal  8.488052e-01 -5.286996e-01  2.568393e-03
    outer loop
      vertex   4.489848e-01 -2.205200e-01  5.000000e-01
      vertex   3.848870e-01 -3.234265e-01  5.000000e-01
      vertex   3.982783e-01 -3.067851e-01 -5.000000e-01
    endloop
  endfacet
  facet normal  6.821523e-01 -7.312037e-01 -3.033259e-03
    outer loop
      vertex   3.982783e-01 -3.067851e-01 -5.000000e-01
      vertex   3.848870e-01 -3.234265e-01  5.000000e-01
      vertex   2.859735e-01 -4.115562e-01 -5.000000e-01
    endloop
  endfacet
  facet normal  6.573738e-01 -7.535634e-01  1.388223e-03
    outer loop
      vertex   3.848870e-01 -3.234265e-01  5.000000e-01
      vertex   2.797308e-01 -4.151598e-01  5.000000e-01
      vertex   2.859735e-01 -4.115562e-01 -5.000000e-01
    endloop
  endfacet
  facet normal  4.712775e-01 -8.819849e-01 -2.362887e-04
    outer loop
      vertex   2.797308e-01 -4.151598e-01  5.000000e-01
      vertex   1.851153e-01 -4.657164e-01  5.000000e-01
      vertex   2.859735e-01 -4.115562e-01 -5.000000e-01
    endloop
  endfacet
  facet normal  4.653869e-01 -8.851068e-01 -9.994798e-04
    outer loop
      vertex   2.859735e-01 -4.115562e-01 -5.000000e-01
      vertex   1.851153e-01 -4.657164e-01  5.000000e-01
      vertex   1.769557e-01 -4.688775e-01 -5.000000e-01
    endloop
  endfacet
  facet normal  2.523740e-01 -9.676292e-01  9.994770e-04
    outer loop
      vertex   1.851153e-01 -4.657164e-01  5.000000e-01
      vertex   6.592569e-02 -4.968031e-01  5.000000e-01
      vertex   1.769557e-01 -4.688775e-01 -5.000000e-01
    endloop
  endfacet
  facet normal  2.459264e-01 -9.692885e-01  2.372585e-04
    outer loop
      vertex   1.769557e-01 -4.688775e-01 -5.000000e-01
      vertex   6.592569e-02 -4.968031e-01  5.000000e-01
      vertex   7.297439e-02 -4.952595e-01 -5.000000e-01
    endloop
  endfacet
  facet normal  6.524847e-02 -9.978685e-01 -1.080404e-03
    outer loop
      vertex   7.297439e-02 -4.952595e-01 -5.000000e-01
      vertex   6.592569e-02 -4.968031e-01  5.000000e-01
      vertex  -2.722079e-03 -5.002091e-01 -5.000000e-01
    endloop
  endfacet
  facet normal  8.728916e-03 -9.999580e-01  2.806654e-03
    outer loop
      vertex   6.592569e-02 -4.968031e-01  5.000000e-01
      vertex  -5.724347e-02 -4.978783e-01  5.000000e-01
      vertex  -2.722079e-03 -5.002091e-01 -5.000000e-01
    endloop
  endfacet
  facet normal -8.939621e-02 -9.959928e-01 -2.552507e-03
    outer loop
      vertex  -2.722079e-03 -5.002091e-01 -5.000000e-01
      vertex  -5.724347e-02 -4.978783e-01  5.000000e-01
      vertex  -9.638589e-02 -4.918022e-01 -5.000000e-01
    endloop
  endfacet
  facet normal -2.167473e-01 -9.762244e-01  2.552435e-03
    outer loop
      vertex  -5.724347e-02 -4.978783e-01  5.000000e-01
      vertex  -1.490374e-01 -4.774976e-01  5.000000e-01
      vertex  -9.638589e-02 -4.918022e-01 -5.000000e-01
    endloop
  endfacet
  facet normal -3.314547e-01 -9.434628e-01 -3.955726e-03
    outer loop
      vertex  -9.638589e-02 -4.918022e-01 -5.000000e-01
      vertex  -1.490374e-01 -4.774976e-01  5.000000e-01
      vertex  -2.420609e-01 -4.406241e-01 -5.000000e-01
    endloop
  endfacet
  facet normal -3.828951e-01 -9.237906e-01  1.554834e-03
    outer loop
      vertex  -1.490374e-01 -4.774976e-01  5.000000e-01
      vertex  -2.468968e-01 -4.369366e-01  5.000000e-01
      vertex  -2.420609e-01 -4.406241e-01 -5.000000e-01
    endloop
  endfacet
  facet normal -5.964090e-01 -8.026808e-01  7.570953e-05
    outer loop
      vertex  -2.468968e-01 -4.369366e-01  5.000000e-01
      vertex  -3.349842e-01 -3.714858e-01  5.000000e-01
      vertex  -2.420609e-01 -4.406241e-01 -5.000000e-01
    endloop
  endfacet
  facet normal -6.179143e-01 -7.862396e-01 -3.059348e-03
    outer loop
      vertex  -2.420609e-01 -4.406241e-01 -5.000000e-01
      vertex  -3.349842e-01 -3.714858e-01  5.000000e-01
      vertex  -3.628198e-01 -3.457184e-01 -5.000000e-01
    endloop
  endfacet
  facet normal -7.271672e-01 -6.864557e-01  2.552953e-03
    outer loop
      vertex  -3.349842e-01 -3.714858e-01  5.000000e-01
      vertex  -3.972824e-01 -3.054928e-01  5.000000e-01
      vertex  -3.628198e-01 -3.457184e-01 -5.000000e-01
    endloop
  endfacet
  facet normal -8.032412e-01 -5.956423e-01 -3.721775e-03
    outer loop
      vertex  -3.628198e-01 -3.457184e-01 -5.000000e-01
      vertex  -3.972824e-01 -3.054928e-01  5.000000e-01
      vertex  -4.361871e-01 -2.467804e-01 -5.000000e-01
    endloop
  endfacet
  facet normal -8.666785e-01 -4.988475e-01  4.429296e-03
    outer loop
      vertex  -3.972824e-01 -3.054928e-01  5.000000e-01
      vertex  -4.662793e-01 -1.856203e-01  5.000000e-01
      vertex  -4.361871e-01 -2.467804e-01 -5.000000e-01
    endloop
  endfacet
  facet normal -9.200905e-01 -3.916881e-01 -3.731864e-03
    outer loop
      vertex  -4.361871e-01 -2.467804e-01 -5.000000e-01
      vertex  -4.662793e-01 -1.856203e-01  5.000000e-01
      vertex  -4.782028e-01 -1.480838e-01 -5.000000e-01
    endloop
  endfacet
  facet normal -9.725248e-01 -2.327816e-01  2.858126e-03
    outer loop
      vertex  -4.662793e-01 -1.856203e-01  5.000000e-01
      vertex  -4.985973e-01 -5.060065e-02  5.000000e-01
      vertex  -4.782028e-01 -1.480838e-01 -5.000000e-01
    endloop
  endfacet
  facet normal -9.806468e-01 -1.957825e-01 -9.143009e-04
    outer loop
      vertex  -4.782028e-01 -1.480838e-01 -5.000000e-01
      vertex  -4.985973e-01 -5.060065e-02  5.000000e-01
      vertex  -4.994047e-01 -4.188664e-02 -5.000000e-01
    endloop
  endfacet
  facet normal -9.999955e-01  2.870853e-03  8.323877e-04
    outer loop
      vertex  -4.985973e-01 -5.060065e-02  5.000000e-01
      vertex  -4.983274e-01  4.343001e-02  5.000000e-01
      vertex  -4.994047e-01 -4.188664e-02 -5.000000e-01
    endloop
  endfacet
  facet normal  0.000000e+00 -0.000000e+00  1.000000e+00
    outer loop
      vertex   4.921018e-01 -1.028520e-01  5.000000e-01
      vertex   4.985973e-01  5.060065e-02  5.000000e-01
      vertex  -4.983274e-01  4.343001e-02  5.000000e-01
    endloop
  endfacet
  facet normal  0.000000e+00 -0.000000e+00  1.000000e+00
    outer loop
      vertex   4.489848e-01 -2.205200e-01  5.000000e-01
      vertex   4.921018e-01 -1.028520e-01  5.000000e-01
      vertex  -4.983274e-01  4.343001e-02  5.000000e-01
    endloop
  endfacet
  facet normal  0.000000e+00  0.000000e+00  1.000000e+00
    outer loop
      vertex  -4.983274e-01  4.343001e-02  5.000000e-01
      vertex   3.848870e-01 -3.234265e-01  5.000000e-01
      vertex   4.489848e-01 -2.205200e-01  5.000000e-01
    endloop
  endfacet
  facet normal  0.000000e+00  0.000000e+00  1.000000e+00
    outer loop
      vertex  -4.983274e-01  4.343001e-02  5.000000e-01
      vertex   2.797308e-01 -4.151598e-01  5.000000e-01
      vertex   3.848870e-01 -3.234265e-01  5.000000e-01
    endloop
  endfacet
  facet normal  0.000000e+00  0.000000e+00  1.000000e+00
    outer loop
      vertex  -4.983274e-01  4.343001e-02  5.000000e-01
      vertex   1.851153e-01 -4.657164e-01  5.000000e-01
      vertex   2.797308e-01 -4.151598e-01  5.000000e-01
    endloop
  endfacet
  facet normal  0.000000e+00 -0.000000e+00  1.000000e+00
    outer loop
      vertex   6.592569e-02 -4.968031e-01  5.000000e-01
      vertex   1.851153e-01 -4.657164e-01  5.000000e-01
      vertex  -4.983274e-01  4.343001e-02  5.000000e-01
    endloop
  endfacet
  facet normal  0.000000e+00 -0.000000e+00  1.000000e+00
    outer loop
      vertex  -5.724347e-02 -4.978783e-01  5.000000e-01
      vertex   6.592569e-02 -4.968031e-01  5.000000e-01
      vertex  -4.983274e-01  4.343001e-02  5.000000e-01
    endloop
  endfacet
  facet normal -0.000000e+00 -0.000000e+00  1.000000e+00
    outer loop
      vertex  -2.468968e-01 -4.369366e-01  5.000000e-01
      vertex  -1.490374e-01 -4.774976e-01  5.000000e-01
      vertex  -4.983274e-01  4.343001e-02  5.000000e-01
    endloop
  endfacet
  facet normal  0.000000e+00  0.000000e+00  1.000000e+00
    outer loop
      vertex  -4.983274e-01  4.343001e-02  5.000000e-01
      vertex  -1.490374e-01 -4.774976e-01  5.000000e-01
      vertex  -5.724347e-02 -4.978783e-01  5.000000e-01
    endloop
  endfacet
  facet normal -0.000000e+00 -0.000000e+00  1.000000e+00
    outer loop
      vertex  -3.349842e-01 -3.714858e-01  5.000000e-01
      vertex  -2.468968e-01 -4.369366e-01  5.000000e-01
      vertex  -4.983274e-01  4.343001e-02  5.000000e-01
    endloop
  endfacet
  facet normal  0.000000e+00  0.000000e+00  1.000000e+00
    outer loop
      vertex  -4.983274e-01  4.343001e-02  5.000000e-01
      vertex  -3.972824e-01 -3.054928e-01  5.000000e-01
      vertex  -3.349842e-01 -3.714858e-01  5.000000e-01
    endloop
  endfacet
  facet normal -0.000000e+00 -0.000000e+00  1.000000e+00
    outer loop
      vertex  -4.662793e-01 -1.856203e-01  5.000000e-01
      vertex  -3.972824e-01 -3.054928e-01  5.000000e-01
      vertex  -4.983274e-01  4.343001e-02  5.000000e-01
    endloop
  endfacet
  facet normal  0.000000e+00  0.000000e+00  1.000000e+00
    outer loop
      vertex  -4.983274e-01  4.343001e-02  5.000000e-01
      vertex  -4.985973e-01 -5.060065e-02  5.000000e-01
      vertex  -4.662793e-01 -1.856203e-01  5.000000e-01
    endloop
  endfacet
  facet normal  0.000000e+00  0.000000e+00  1.000000e+00
    outer loop
      vertex  -4.489848e-01  2.205200e-01  5.000000e-01
      vertex  -4.832072e-01  1.329291e-01  5.000000e-01
      vertex  -4.983274e-01  4.343001e-02  5.000000e-01
    endloop
  endfacet
  facet normal  0.000000e+00  0.000000e+00  1.000000e+00
    outer loop
      vertex  -3.422252e-01  3.682725e-01  5.000000e-01
      vertex  -4.184843e-01  2.740205e-01  5.000000e-01
      vertex  -4.983274e-01  4.343001e-02  5.000000e-01
    endloop
  endfacet
  facet normal  0.000000e+00  0.000000e+00  1.000000e+00
    outer loop
      vertex  -4.983274e-01  4.343001e-02  5.000000e-01
      vertex  -4.184843e-01  2.740205e-01  5.000000e-01
      vertex  -4.489848e-01  2.205200e-01  5.000000e-01
    endloop
  endfacet
  facet normal  0.000000e+00  0.000000e+00  1.000000e+00
    outer loop
      vertex  -2.390475e-01  4.394006e-01  5.000000e-01
      vertex  -3.422252e-01  3.682725e-01  5.000000e-01
      vertex  -4.983274e-01  4.343001e-02  5.000000e-01
    endloop
  endfacet
  facet normal  0.000000e+00  0.000000e+00  1.000000e+00
    outer loop
      vertex  -1.272736e-01  4.863580e-01  5.000000e-01
      vertex  -2.390475e-01  4.394006e-01  5.000000e-01
      vertex  -4.983274e-01  4.343001e-02  5.000000e-01
    endloop
  endfacet
  facet normal  0.000000e+00  0.000000e+00  1.000000e+00
    outer loop
      vertex   1.155310e-02  5.004736e-01  5.000000e-01
      vertex  -1.272736e-01  4.863580e-01  5.000000e-01
      vertex  -4.983274e-01  4.343001e-02  5.000000e-01
    endloop
  endfacet
  facet normal  0.000000e+00  0.000000e+00  1.000000e+00
    outer loop
      vertex   1.478202e-01  4.805122e-01  5.000000e-01
      vertex   1.155310e-02  5.004736e-01  5.000000e-01
      vertex  -4.983274e-01  4.343001e-02  5.000000e-01
    endloop
  endfacet
  facet normal  0.000000e+00  0.000000e+00  1.000000e+00
    outer loop
      vertex   2.859735e-01  4.115562e-01  5.000000e-01
      vertex   1.478202e-01  4.805122e-01  5.000000e-01
      vertex  -4.983274e-01  4.343001e-02  5.000000e-01
    endloop
  endfacet
  facet normal  0.000000e+00  0.000000e+00  1.000000e+00
    outer loop
      vertex   3.572067e-01  3.501709e-01  5.000000e-01
      vertex   2.859735e-01  4.115562e-01  5.000000e-01
      vertex  -4.983274e-01  4.343001e-02  5.000000e-01
    endloop
  endfacet
  facet normal  0.000000e+00  0.000000e+00  1.000000e+00
    outer loop
      vertex   4.153359e-01  2.804560e-01  5.000000e-01
      vertex   3.572067e-01  3.501709e-01  5.000000e-01
      vertex  -4.983274e-01  4.343001e-02  5.000000e-01
    endloop
  endfacet
  facet normal  0.000000e+00  0.000000e+00  1.000000e+00
    outer loop
      vertex   4.711952e-01  1.706884e-01  5.000000e-01
      vertex   4.153359e-01  2.804560e-01  5.000000e-01
      vertex  -4.983274e-01  4.343001e-02  5.000000e-01
    endloop
  endfacet
  facet normal  0.000000e+00  0.000000e+00  1.000000e+00
    outer loop
      vertex  -4.983274e-01  4.343001e-02  5.000000e-01
      vertex   4.985973e-01  5.060065e-02  5.000000e-01
      vertex   4.711952e-01  1.706884e-01  5.000000e-01
    endloop
  endfacet
endsolid vcg
