#usda 1.0
(
    defaultPrim = "ShakerFDM5mm"
    metersPerUnit = 1
    upAxis = "Z"
    doc = "Cocktail shaker body, 5 mm FDM wall, from Fusion rl_ws/simulation setting/shaker (component Body_FDM5mm). Meters, Z-up. Origin recentred to the bounding-box centre."
)

def Xform "ShakerFDM5mm" (
    prepend apiSchemas = ["PhysicsRigidBodyAPI", "PhysicsMassAPI"]
)
{
    bool physics:rigidBodyEnabled = 1
    float physics:mass = 0.251479
    # material: PLA 1.24 g/cm3 (solid), volume 202.8055 cm3
    point3f physics:centerOfMass = (0, 0, 0.00137838)
    float3 physics:diagonalInertia = (0.000837779, 0.000837779, 0.000293114)
    quatf physics:principalAxes = (1, 0, 0, 0)
    def Scope "Looks"
    {
        def Material "Metal_CBCBCB"
        {
            token outputs:surface.connect = </ShakerFDM5mm/Looks/Metal_CBCBCB/Shader.outputs:surface>
            def Shader "Shader"
            {
                uniform token info:id = "UsdPreviewSurface"
                color3f inputs:diffuseColor = (0.7961, 0.7961, 0.7961)
                float inputs:metallic = 1.00
                float inputs:roughness = 0.265
                token outputs:surface
            }
        }
    }
    def Scope "Visuals"
    {
        def Mesh "Metal_CBCBCB" (
            prepend apiSchemas = ["MaterialBindingAPI"]
        )
        {
            rel material:binding = </ShakerFDM5mm/Looks/Metal_CBCBCB>
            uniform token subdivisionScheme = "none"
            int[] faceVertexCounts = [3, 3, 3, 3, 3, 3, 3, 3, 3, 3, 3, 3, 3, 3, 3, 3, 3, 3, 3, 3, 3, 3, 3, 3, 3, 3, 3, 3, 3, 3, 3, 3, 3, 3, 3, 3, 3, 3, 3, 3, 3, 3, 3, 3, 3, 3, 3, 3, 3, 3, 3, 3, 3, 3, 3, 3, 3, 3, 3, 3, 3, 3, 3, 3, 3, 3, 3, 3, 3, 3, 3, 3, 3, 3, 3, 3, 3, 3, 3, 3, 3, 3, 3, 3, 3, 3, 3, 3, 3, 3, 3, 3, 3, 3, 3, 3, 3, 3, 3, 3, 3, 3, 3, 3, 3, 3, 3, 3, 3, 3, 3, 3, 3, 3, 3, 3, 3, 3, 3, 3, 3, 3, 3, 3, 3, 3, 3, 3, 3, 3, 3, 3, 3, 3, 3, 3, 3, 3, 3, 3, 3, 3, 3, 3, 3, 3, 3, 3, 3, 3, 3, 3, 3, 3, 3, 3, 3, 3, 3, 3, 3, 3, 3, 3, 3, 3, 3, 3, 3, 3, 3, 3, 3, 3, 3, 3, 3, 3, 3, 3, 3, 3, 3, 3, 3, 3, 3, 3, 3, 3, 3, 3, 3, 3, 3, 3, 3, 3, 3, 3, 3, 3, 3, 3, 3, 3, 3, 3, 3, 3, 3, 3, 3, 3, 3, 3, 3, 3, 3, 3, 3, 3, 3, 3, 3, 3, 3, 3, 3, 3, 3, 3, 3, 3, 3, 3, 3, 3, 3, 3, 3, 3, 3, 3, 3, 3, 3, 3, 3, 3, 3, 3, 3, 3, 3, 3, 3, 3, 3, 3, 3, 3, 3, 3, 3, 3, 3, 3, 3, 3, 3, 3, 3, 3, 3, 3, 3, 3, 3, 3, 3, 3, 3, 3, 3, 3, 3, 3, 3, 3, 3, 3, 3, 3, 3, 3, 3, 3, 3, 3, 3, 3, 3, 3, 3, 3, 3, 3, 3, 3, 3, 3, 3, 3, 3, 3, 3, 3, 3, 3, 3, 3, 3, 3, 3, 3, 3, 3, 3, 3, 3, 3, 3, 3, 3, 3, 3, 3, 3, 3, 3, 3, 3, 3, 3, 3, 3, 3, 3, 3, 3, 3, 3, 3, 3, 3, 3, 3, 3, 3, 3, 3, 3, 3, 3, 3, 3, 3, 3, 3, 3, 3, 3, 3, 3, 3, 3, 3, 3, 3, 3, 3, 3, 3, 3, 3, 3, 3, 3, 3, 3, 3, 3, 3, 3, 3, 3, 3, 3, 3, 3, 3, 3, 3, 3, 3, 3, 3, 3, 3, 3, 3, 3, 3, 3, 3, 3, 3, 3, 3, 3, 3, 3, 3, 3, 3, 3, 3, 3, 3, 3, 3, 3, 3, 3, 3, 3, 3, 3, 3, 3, 3, 3, 3, 3, 3, 3, 3, 3, 3, 3, 3, 3, 3, 3, 3, 3, 3, 3, 3, 3, 3, 3, 3, 3, 3, 3, 3, 3, 3, 3, 3, 3, 3, 3, 3, 3, 3, 3, 3, 3, 3, 3, 3, 3, 3, 3, 3, 3, 3, 3, 3, 3, 3, 3, 3, 3, 3, 3, 3, 3, 3, 3, 3, 3, 3, 3, 3, 3, 3, 3, 3, 3, 3]
            int[] faceVertexIndices = [73, 0, 74, 74, 0, 1, 74, 1, 143, 143, 1, 2, 143, 2, 142, 142, 2, 3, 142, 3, 141, 141, 3, 4, 141, 4, 140, 140, 4, 5, 140, 5, 139, 139, 5, 6, 139, 6, 138, 138, 6, 7, 138, 7, 137, 137, 7, 8, 137, 8, 136, 136, 8, 9, 136, 9, 135, 135, 9, 10, 135, 10, 134, 134, 10, 11, 134, 11, 133, 133, 11, 12, 133, 12, 132, 132, 12, 13, 132, 13, 131, 131, 13, 14, 131, 14, 130, 130, 14, 15, 130, 15, 129, 129, 15, 16, 129, 16, 128, 128, 16, 17, 128, 17, 127, 127, 17, 18, 127, 18, 19, 127, 19, 126, 126, 19, 20, 126, 20, 125, 125, 20, 21, 125, 21, 124, 124, 21, 22, 124, 22, 123, 123, 22, 23, 123, 23, 122, 122, 23, 24, 122, 24, 121, 121, 24, 25, 121, 25, 120, 120, 25, 26, 120, 26, 119, 119, 26, 27, 119, 27, 118, 118, 27, 28, 118, 28, 117, 117, 28, 29, 117, 29, 116, 116, 29, 30, 116, 30, 115, 115, 30, 31, 115, 31, 114, 114, 31, 32, 114, 32, 113, 113, 32, 33, 113, 33, 112, 112, 33, 34, 112, 34, 111, 111, 34, 35, 111, 35, 110, 110, 35, 36, 110, 36, 109, 109, 36, 37, 109, 37, 38, 109, 38, 108, 108, 38, 39, 108, 39, 107, 107, 39, 40, 107, 40, 106, 106, 40, 41, 106, 41, 105, 105, 41, 42, 105, 42, 104, 104, 42, 43, 104, 43, 103, 103, 43, 44, 103, 44, 102, 102, 44, 45, 102, 45, 101, 101, 45, 46, 101, 46, 100, 100, 46, 47, 100, 47, 99, 99, 47, 48, 99, 48, 98, 98, 48, 49, 98, 49, 97, 97, 49, 50, 97, 50, 96, 96, 50, 51, 96, 51, 95, 95, 51, 52, 95, 52, 94, 94, 52, 53, 94, 53, 93, 93, 53, 54, 93, 54, 92, 92, 54, 55, 92, 55, 56, 92, 56, 91, 91, 56, 57, 91, 57, 90, 90, 57, 58, 90, 58, 89, 89, 58, 59, 89, 59, 88, 88, 59, 60, 88, 60, 87, 87, 60, 61, 87, 61, 86, 86, 61, 62, 86, 62, 85, 85, 62, 63, 85, 63, 84, 84, 63, 64, 84, 64, 83, 83, 64, 65, 83, 65, 82, 82, 65, 66, 82, 66, 81, 81, 66, 67, 81, 67, 80, 80, 67, 68, 80, 68, 79, 79, 68, 69, 79, 69, 78, 78, 69, 70, 78, 70, 77, 77, 70, 71, 77, 71, 76, 76, 71, 72, 76, 72, 75, 75, 72, 73, 75, 73, 74, 144, 145, 198, 198, 145, 146, 198, 146, 147, 147, 148, 198, 198, 148, 149, 198, 149, 150, 150, 151, 198, 198, 151, 152, 198, 152, 153, 153, 154, 198, 198, 154, 155, 198, 155, 156, 156, 157, 198, 198, 157, 158, 198, 158, 159, 159, 160, 198, 198, 160, 161, 198, 161, 197, 197, 161, 162, 197, 162, 163, 163, 164, 197, 197, 164, 165, 197, 165, 166, 166, 167, 197, 197, 167, 168, 197, 168, 169, 169, 170, 197, 197, 170, 171, 197, 171, 172, 172, 173, 197, 197, 173, 174, 197, 174, 196, 196, 174, 175, 196, 175, 195, 195, 175, 176, 195, 176, 194, 194, 176, 177, 194, 177, 193, 193, 177, 178, 193, 178, 192, 192, 178, 179, 192, 179, 191, 191, 179, 180, 191, 180, 190, 190, 180, 181, 190, 181, 189, 189, 181, 182, 189, 182, 188, 188, 182, 183, 188, 183, 187, 187, 183, 184, 187, 184, 186, 186, 184, 185, 200, 228, 199, 199, 228, 229, 199, 229, 258, 258, 229, 230, 258, 230, 257, 257, 230, 231, 257, 231, 256, 256, 231, 232, 256, 232, 255, 255, 232, 233, 255, 233, 254, 254, 233, 234, 254, 234, 253, 253, 234, 235, 253, 235, 252, 252, 235, 236, 252, 236, 251, 251, 236, 237, 251, 237, 250, 250, 237, 238, 250, 238, 249, 249, 238, 239, 249, 239, 248, 248, 239, 240, 248, 240, 247, 247, 240, 241, 247, 241, 246, 246, 241, 242, 246, 242, 245, 245, 242, 243, 245, 243, 244, 228, 200, 227, 227, 200, 201, 227, 201, 226, 226, 201, 202, 226, 202, 225, 225, 202, 203, 225, 203, 224, 224, 203, 204, 224, 204, 223, 223, 204, 205, 223, 205, 222, 222, 205, 206, 222, 206, 221, 221, 206, 207, 221, 207, 220, 220, 207, 208, 220, 208, 219, 219, 208, 209, 219, 209, 218, 218, 209, 210, 218, 210, 217, 217, 210, 211, 217, 211, 216, 216, 211, 212, 216, 212, 215, 215, 212, 213, 215, 213, 214, 260, 392, 259, 259, 392, 319, 259, 319, 320, 392, 260, 391, 391, 260, 261, 391, 261, 390, 390, 261, 262, 390, 262, 389, 389, 262, 263, 389, 263, 388, 388, 263, 387, 387, 263, 264, 387, 264, 386, 386, 264, 265, 386, 265, 385, 385, 265, 266, 385, 266, 384, 384, 266, 267, 384, 267, 383, 383, 267, 268, 383, 268, 382, 382, 268, 381, 381, 268, 269, 381, 269, 380, 380, 269, 270, 380, 270, 379, 379, 270, 271, 379, 271, 378, 378, 271, 272, 378, 272, 377, 377, 272, 376, 376, 272, 273, 376, 273, 375, 375, 273, 274, 375, 274, 374, 374, 274, 275, 374, 275, 373, 373, 275, 276, 373, 276, 372, 372, 276, 371, 371, 276, 277, 371, 277, 370, 370, 277, 278, 370, 278, 369, 369, 278, 279, 369, 279, 368, 368, 279, 280, 368, 280, 367, 367, 280, 366, 366, 280, 281, 366, 281, 365, 365, 281, 282, 365, 282, 364, 364, 282, 283, 364, 283, 363, 363, 283, 284, 363, 284, 362, 362, 284, 285, 362, 285, 361, 361, 285, 360, 360, 285, 286, 360, 286, 359, 359, 286, 287, 359, 287, 358, 358, 287, 288, 358, 288, 357, 357, 288, 393, 357, 393, 356, 394, 289, 355, 355, 289, 290, 355, 290, 354, 354, 290, 291, 354, 291, 353, 353, 291, 292, 353, 292, 352, 352, 292, 293, 352, 293, 351, 351, 293, 350, 350, 293, 294, 350, 294, 349, 349, 294, 295, 349, 295, 348, 348, 295, 296, 348, 296, 347, 347, 296, 297, 347, 297, 346, 346, 297, 298, 346, 298, 345, 345, 298, 344, 344, 298, 299, 344, 299, 343, 343, 299, 300, 343, 300, 342, 342, 300, 301, 342, 301, 341, 341, 301, 302, 341, 302, 340, 340, 302, 339, 339, 302, 303, 339, 303, 338, 338, 303, 304, 338, 304, 337, 337, 304, 305, 337, 305, 336, 336, 305, 306, 336, 306, 335, 335, 306, 334, 334, 306, 307, 334, 307, 333, 333, 307, 308, 333, 308, 332, 332, 308, 309, 332, 309, 331, 331, 309, 310, 331, 310, 330, 330, 310, 329, 329, 310, 311, 329, 311, 328, 328, 311, 312, 328, 312, 327, 327, 312, 313, 327, 313, 326, 326, 313, 314, 326, 314, 325, 325, 314, 315, 325, 315, 324, 324, 315, 323, 323, 315, 316, 323, 316, 322, 322, 316, 317, 322, 317, 321, 321, 317, 318, 321, 318, 320, 320, 318, 259, 464, 395, 465, 465, 395, 396, 465, 396, 519, 519, 396, 397, 519, 397, 518, 518, 397, 398, 518, 398, 517, 517, 398, 399, 517, 399, 516, 516, 399, 400, 516, 400, 401, 516, 401, 515, 515, 401, 402, 515, 402, 514, 514, 402, 403, 514, 403, 513, 513, 403, 404, 513, 404, 405, 513, 405, 512, 512, 405, 406, 512, 406, 511, 511, 406, 407, 511, 407, 510, 510, 407, 408, 510, 408, 509, 509, 408, 409, 509, 409, 410, 509, 410, 508, 508, 410, 411, 508, 411, 507, 507, 411, 412, 507, 412, 506, 506, 412, 413, 506, 413, 505, 505, 413, 414, 505, 414, 415, 505, 415, 504, 504, 415, 416, 504, 416, 503, 503, 416, 417, 503, 417, 502, 502, 417, 418, 502, 418, 419, 502, 419, 501, 501, 419, 420, 501, 420, 500, 500, 420, 421, 500, 421, 499, 499, 421, 422, 499, 422, 498, 498, 422, 423, 498, 423, 424, 498, 424, 497, 497, 424, 425, 497, 425, 496, 496, 425, 426, 496, 426, 495, 495, 426, 427, 495, 427, 494, 494, 427, 428, 494, 428, 429, 494, 429, 493, 493, 429, 520, 493, 520, 492, 521, 430, 431, 521, 431, 491, 491, 431, 432, 491, 432, 433, 491, 433, 490, 490, 433, 434, 490, 434, 489, 489, 434, 435, 489, 435, 488, 488, 435, 436, 488, 436, 487, 487, 436, 437, 487, 437, 438, 487, 438, 486, 486, 438, 439, 486, 439, 485, 485, 439, 440, 485, 440, 484, 484, 440, 441, 484, 441, 483, 483, 441, 442, 483, 442, 443, 483, 443, 482, 482, 443, 444, 482, 444, 481, 481, 444, 445, 481, 445, 480, 480, 445, 446, 480, 446, 447, 480, 447, 479, 479, 447, 448, 479, 448, 478, 478, 448, 449, 478, 449, 477, 477, 449, 450, 477, 450, 476, 476, 450, 451, 476, 451, 452, 476, 452, 475, 475, 452, 453, 475, 453, 474, 474, 453, 454, 474, 454, 473, 473, 454, 455, 473, 455, 472, 472, 455, 456, 472, 456, 457, 472, 457, 471, 471, 457, 458, 471, 458, 470, 470, 458, 459, 470, 459, 469, 469, 459, 460, 469, 460, 461, 469, 461, 468, 468, 461, 462, 468, 462, 467, 467, 462, 463, 467, 463, 466, 466, 463, 464, 466, 464, 465]
            point3f[] points = [(0.044, 0, 0.0875), (0.0438415, 0.00373146, 0.0875), (0.0433671, 0.00743604, 0.0875), (0.0425803, 0.011087, 0.0875), (0.0414866, 0.0146582, 0.0875), (0.0400941, 0.0181237, 0.0875), (0.0384126, 0.0214586, 0.0875), (0.0364544, 0.0246389, 0.0875), (0.0342336, 0.0276417, 0.0875), (0.0317661, 0.0304453, 0.0875), (0.0290697, 0.0330296, 0.0875), (0.0261639, 0.0353759, 0.0875), (0.0230695, 0.0374673, 0.0875), (0.019809, 0.0392887, 0.0875), (0.0164057, 0.0408271, 0.0875), (0.0128842, 0.0420713, 0.0875), (0.00926989, 0.0430124, 0.0875), (0.00558878, 0.0436436, 0.0875), (0.00186741, 0.0439604, 0.0875), (-0.00186741, 0.0439604, 0.0875), (-0.00558878, 0.0436436, 0.0875), (-0.00926989, 0.0430124, 0.0875), (-0.0128842, 0.0420713, 0.0875), (-0.0164057, 0.0408271, 0.0875), (-0.019809, 0.0392887, 0.0875), (-0.0230695, 0.0374673, 0.0875), (-0.0261639, 0.0353759, 0.0875), (-0.0290697, 0.0330296, 0.0875), (-0.0317661, 0.0304453, 0.0875), (-0.0342336, 0.0276417, 0.0875), (-0.0364544, 0.0246389, 0.0875), (-0.0384126, 0.0214586, 0.0875), (-0.0400941, 0.0181237, 0.0875), (-0.0414866, 0.0146582, 0.0875), (-0.0425803, 0.011087, 0.0875), (-0.0433671, 0.00743604, 0.0875), (-0.0438415, 0.00373146, 0.0875), (-0.044, 5.38845e-18, 0.0875), (-0.0438415, -0.00373146, 0.0875), (-0.0433671, -0.00743604, 0.0875), (-0.0425803, -0.011087, 0.0875), (-0.0414866, -0.0146582, 0.0875), (-0.0400941, -0.0181237, 0.0875), (-0.0384126, -0.0214586, 0.0875), (-0.0364544, -0.0246389, 0.0875), (-0.0342336, -0.0276417, 0.0875), (-0.0317661, -0.0304453, 0.0875), (-0.0290697, -0.0330296, 0.0875), (-0.0261639, -0.0353759, 0.0875), (-0.0230695, -0.0374673, 0.0875), (-0.019809, -0.0392887, 0.0875), (-0.0164057, -0.0408271, 0.0875), (-0.0128842, -0.0420713, 0.0875), (-0.00926989, -0.0430124, 0.0875), (-0.00558878, -0.0436436, 0.0875), (-0.00186741, -0.0439604, 0.0875), (0.00186741, -0.0439604, 0.0875), (0.00558878, -0.0436436, 0.0875), (0.00926989, -0.0430124, 0.0875), (0.0128842, -0.0420713, 0.0875), (0.0164057, -0.0408271, 0.0875), (0.019809, -0.0392887, 0.0875), (0.0230695, -0.0374673, 0.0875), (0.0261639, -0.0353759, 0.0875), (0.0290697, -0.0330296, 0.0875), (0.0317661, -0.0304453, 0.0875), (0.0342336, -0.0276417, 0.0875), (0.0364544, -0.0246389, 0.0875), (0.0384126, -0.0214586, 0.0875), (0.0400941, -0.0181237, 0.0875), (0.0414866, -0.0146582, 0.0875), (0.0425803, -0.011087, 0.0875), (0.0433671, -0.00743604, 0.0875), (0.0438415, -0.00373146, 0.0875), (0.039, 0, 0.0875), (0.038843, -0.00349593, 0.0875), (0.0383733, -0.00696372, 0.0875), (0.0375946, -0.0103754, 0.0875), (0.0365132, -0.0137036, 0.0875), (0.0351378, -0.0169215, 0.0875), (0.0334795, -0.0200031, 0.0875), (0.0315517, -0.0229236, 0.0875), (0.0293698, -0.0256596, 0.0875), (0.0269514, -0.028189, 0.0875), (0.0243161, -0.0304914, 0.0875), (0.021485, -0.0325484, 0.0875), (0.0184809, -0.0343432, 0.0875), (0.015328, -0.0358616, 0.0875), (0.0120517, -0.0370912, 0.0875), (0.00867832, -0.0380222, 0.0875), (0.0052351, -0.038647, 0.0875), (0.00174973, -0.0389607, 0.0875), (-0.00174973, -0.0389607, 0.0875), (-0.0052351, -0.038647, 0.0875), (-0.00867832, -0.0380222, 0.0875), (-0.0120517, -0.0370912, 0.0875), (-0.015328, -0.0358616, 0.0875), (-0.0184809, -0.0343432, 0.0875), (-0.021485, -0.0325484, 0.0875), (-0.0243161, -0.0304914, 0.0875), (-0.0269514, -0.028189, 0.0875), (-0.0293698, -0.0256596, 0.0875), (-0.0315517, -0.0229236, 0.0875), (-0.0334795, -0.0200031, 0.0875), (-0.0351378, -0.0169215, 0.0875), (-0.0365132, -0.0137036, 0.0875), (-0.0375946, -0.0103754, 0.0875), (-0.0383733, -0.00696372, 0.0875), (-0.038843, -0.00349593, 0.0875), (-0.039, 4.77612e-18, 0.0875), (-0.038843, 0.00349593, 0.0875), (-0.0383733, 0.00696372, 0.0875), (-0.0375946, 0.0103754, 0.0875), (-0.0365132, 0.0137036, 0.0875), (-0.0351378, 0.0169215, 0.0875), (-0.0334795, 0.0200031, 0.0875), (-0.0315517, 0.0229236, 0.0875), (-0.0293698, 0.0256596, 0.0875), (-0.0269514, 0.028189, 0.0875), (-0.0243161, 0.0304914, 0.0875), (-0.021485, 0.0325484, 0.0875), (-0.0184809, 0.0343432, 0.0875), (-0.015328, 0.0358616, 0.0875), (-0.0120517, 0.0370912, 0.0875), (-0.00867832, 0.0380222, 0.0875), (-0.0052351, 0.038647, 0.0875), (-0.00174973, 0.0389607, 0.0875), (0.00174973, 0.0389607, 0.0875), (0.0052351, 0.038647, 0.0875), (0.00867832, 0.0380222, 0.0875), (0.0120517, 0.0370912, 0.0875), (0.015328, 0.0358616, 0.0875), (0.0184809, 0.0343432, 0.0875), (0.021485, 0.0325484, 0.0875), (0.0243161, 0.0304914, 0.0875), (0.0269514, 0.028189, 0.0875), (0.0293698, 0.0256596, 0.0875), (0.0315517, 0.0229236, 0.0875), (0.0334795, 0.0200031, 0.0875), (0.0351378, 0.0169215, 0.0875), (0.0365132, 0.0137036, 0.0875), (0.0375946, 0.0103754, 0.0875), (0.0383733, 0.00696372, 0.0875), (0.038843, 0.00349593, 0.0875), (0.024, 0, -0.0825), (0.0238436, 0.00273579, -0.0825), (0.0233763, 0.00543592, -0.0825), (0.0226043, 0.00806519, -0.0825), (0.0215376, 0.0105893, -0.0825), (0.0201901, 0.0129754, -0.0825), (0.0185794, 0.0151923, -0.0825), (0.0167265, 0.0172112, -0.0825), (0.0146555, 0.0190057, -0.0825), (0.0123935, 0.0205524, -0.0825), (0.00996996, 0.0218312, -0.0825), (0.00741641, 0.0228254, -0.0825), (0.00476617, 0.023522, -0.0825), (0.0020538, 0.023912, -0.0825), (-0.000685345, 0.0239902, -0.0825), (-0.00341556, 0.0237557, -0.0825), (-0.00610124, 0.0232115, -0.0825), (-0.00870739, 0.0223647, -0.0825), (-0.0112, 0.0212264, -0.0825), (-0.0135466, 0.0198113, -0.0825), (-0.0157167, 0.018138, -0.0825), (-0.0176818, 0.0162282, -0.0825), (-0.0194164, 0.0141068, -0.0825), (-0.0208979, 0.0118016, -0.0825), (-0.022107, 0.00934248, -0.0825), (-0.0230278, 0.00676158, -0.0825), (-0.0236485, 0.00409253, -0.0825), (-0.0239609, 0.00137013, -0.0825), (-0.0239609, -0.00137013, -0.0825), (-0.0236485, -0.00409253, -0.0825), (-0.0230278, -0.00676158, -0.0825), (-0.022107, -0.00934248, -0.0825), (-0.0208979, -0.0118016, -0.0825), (-0.0194164, -0.0141068, -0.0825), (-0.0176818, -0.0162282, -0.0825), (-0.0157167, -0.018138, -0.0825), (-0.0135466, -0.0198113, -0.0825), (-0.0112, -0.0212264, -0.0825), (-0.00870739, -0.0223647, -0.0825), (-0.00610124, -0.0232115, -0.0825), (-0.00341556, -0.0237557, -0.0825), (-0.000685345, -0.0239902, -0.0825), (0.0020538, -0.023912, -0.0825), (0.00476617, -0.023522, -0.0825), (0.00741641, -0.0228254, -0.0825), (0.00996996, -0.0218312, -0.0825), (0.0123935, -0.0205524, -0.0825), (0.0146555, -0.0190057, -0.0825), (0.0167265, -0.0172112, -0.0825), (0.0185794, -0.0151923, -0.0825), (0.0201901, -0.0129754, -0.0825), (0.0215376, -0.0105893, -0.0825), (0.0226043, -0.00806519, -0.0825), (0.0233763, -0.00543592, -0.0825), (0.0238436, -0.00273579, -0.0825), (0.029, 0, -0.0875), (0.0288411, -0.00303133, -0.0875), (0.0283663, -0.00602944, -0.0875), (0.0275806, -0.00896149, -0.0875), (0.0264928, -0.0117954, -0.0875), (0.0251147, -0.0145, -0.0875), (0.0234615, -0.0170458, -0.0875), (0.0215512, -0.0194048, -0.0875), (0.0194048, -0.0215512, -0.0875), (0.0170458, -0.0234615, -0.0875), (0.0145, -0.0251147, -0.0875), (0.0117954, -0.0264928, -0.0875), (0.00896149, -0.0275806, -0.0875), (0.00602944, -0.0283663, -0.0875), (0.00303133, -0.0288411, -0.0875), (-5.32721e-18, -0.029, -0.0875), (-0.00303133, -0.0288411, -0.0875), (-0.00602944, -0.0283663, -0.0875), (-0.00896149, -0.0275806, -0.0875), (-0.0117954, -0.0264928, -0.0875), (-0.0145, -0.0251147, -0.0875), (-0.0170458, -0.0234615, -0.0875), (-0.0194048, -0.0215512, -0.0875), (-0.0215512, -0.0194048, -0.0875), (-0.0234615, -0.0170458, -0.0875), (-0.0251147, -0.0145, -0.0875), (-0.0264928, -0.0117954, -0.0875), (-0.0275806, -0.00896149, -0.0875), (-0.0283663, -0.00602944, -0.0875), (-0.0288411, -0.00303133, -0.0875), (-0.029, 3.55148e-18, -0.0875), (-0.0288411, 0.00303133, -0.0875), (-0.0283663, 0.00602944, -0.0875), (-0.0275806, 0.00896149, -0.0875), (-0.0264928, 0.0117954, -0.0875), (-0.0251147, 0.0145, -0.0875), (-0.0234615, 0.0170458, -0.0875), (-0.0215512, 0.0194048, -0.0875), (-0.0194048, 0.0215512, -0.0875), (-0.0170458, 0.0234615, -0.0875), (-0.0145, 0.0251147, -0.0875), (-0.0117954, 0.0264928, -0.0875), (-0.00896149, 0.0275806, -0.0875), (-0.00602944, 0.0283663, -0.0875), (-0.00303133, 0.0288411, -0.0875), (1.77574e-18, 0.029, -0.0875), (0.00303133, 0.0288411, -0.0875), (0.00602944, 0.0283663, -0.0875), (0.00896149, 0.0275806, -0.0875), (0.0117954, 0.0264928, -0.0875), (0.0145, 0.0251147, -0.0875), (0.0170458, 0.0234615, -0.0875), (0.0194048, 0.0215512, -0.0875), (0.0215512, 0.0194048, -0.0875), (0.0234615, 0.0170458, -0.0875), (0.0251147, 0.0145, -0.0875), (0.0264928, 0.0117954, -0.0875), (0.0275806, 0.00896149, -0.0875), (0.0283663, 0.00602944, -0.0875), (0.0288411, 0.00303133, -0.0875), (0.029, 0, -0.0875), (0.0288411, 0.00303133, -0.0875), (0.0283663, 0.00602944, -0.0875), (0.0275806, 0.00896149, -0.0875), (0.0264928, 0.0117954, -0.0875), (0.0251147, 0.0145, -0.0875), (0.0234615, 0.0170458, -0.0875), (0.0215512, 0.0194048, -0.0875), (0.0194048, 0.0215512, -0.0875), (0.0170458, 0.0234615, -0.0875), (0.0145, 0.0251147, -0.0875), (0.0117954, 0.0264928, -0.0875), (0.00896149, 0.0275806, -0.0875), (0.00602944, 0.0283663, -0.0875), (0.00303133, 0.0288411, -0.0875), (1.77574e-18, 0.029, -0.0875), (-0.00303133, 0.0288411, -0.0875), (-0.00602944, 0.0283663, -0.0875), (-0.00896149, 0.0275806, -0.0875), (-0.0117954, 0.0264928, -0.0875), (-0.0145, 0.0251147, -0.0875), (-0.0170458, 0.0234615, -0.0875), (-0.0194048, 0.0215512, -0.0875), (-0.0215512, 0.0194048, -0.0875), (-0.0234615, 0.0170458, -0.0875), (-0.0251147, 0.0145, -0.0875), (-0.0264928, 0.0117954, -0.0875), (-0.0275806, 0.00896149, -0.0875), (-0.0283663, 0.00602944, -0.0875), (-0.0288411, 0.00303133, -0.0875), (-0.029, 3.55148e-18, -0.0875), (-0.0288411, -0.00303133, -0.0875), (-0.0283663, -0.00602944, -0.0875), (-0.0275806, -0.00896149, -0.0875), (-0.0264928, -0.0117954, -0.0875), (-0.0251147, -0.0145, -0.0875), (-0.0234615, -0.0170458, -0.0875), (-0.0215512, -0.0194048, -0.0875), (-0.0194048, -0.0215512, -0.0875), (-0.0170458, -0.0234615, -0.0875), (-0.0145, -0.0251147, -0.0875), (-0.0117954, -0.0264928, -0.0875), (-0.00896149, -0.0275806, -0.0875), (-0.00602944, -0.0283663, -0.0875), (-0.00303133, -0.0288411, -0.0875), (-5.32721e-18, -0.029, -0.0875), (0.00303133, -0.0288411, -0.0875), (0.00602944, -0.0283663, -0.0875), (0.00896149, -0.0275806, -0.0875), (0.0117954, -0.0264928, -0.0875), (0.0145, -0.0251147, -0.0875), (0.0170458, -0.0234615, -0.0875), (0.0194048, -0.0215512, -0.0875), (0.0215512, -0.0194048, -0.0875), (0.0234615, -0.0170458, -0.0875), (0.0251147, -0.0145, -0.0875), (0.0264928, -0.0117954, -0.0875), (0.0275806, -0.00896149, -0.0875), (0.0283663, -0.00602944, -0.0875), (0.0288411, -0.00303133, -0.0875), (0.044, 0, 0.0875), (0.0438415, -0.00373146, 0.0875), (0.0433671, -0.00743604, 0.0875), (0.0425803, -0.011087, 0.0875), (0.0414866, -0.0146582, 0.0875), (0.0400941, -0.0181237, 0.0875), (0.0384126, -0.0214586, 0.0875), (0.0364544, -0.0246389, 0.0875), (0.0342336, -0.0276417, 0.0875), (0.0317661, -0.0304453, 0.0875), (0.0290697, -0.0330296, 0.0875), (0.0261639, -0.0353759, 0.0875), (0.0230695, -0.0374673, 0.0875), (0.019809, -0.0392887, 0.0875), (0.0164057, -0.0408271, 0.0875), (0.0128842, -0.0420713, 0.0875), (0.00926989, -0.0430124, 0.0875), (0.00558878, -0.0436436, 0.0875), (0.00186741, -0.0439604, 0.0875), (-0.00186741, -0.0439604, 0.0875), (-0.00558878, -0.0436436, 0.0875), (-0.00926989, -0.0430124, 0.0875), (-0.0128842, -0.0420713, 0.0875), (-0.0164057, -0.0408271, 0.0875), (-0.019809, -0.0392887, 0.0875), (-0.0230695, -0.0374673, 0.0875), (-0.0261639, -0.0353759, 0.0875), (-0.0290697, -0.0330296, 0.0875), (-0.0317661, -0.0304453, 0.0875), (-0.0342336, -0.0276417, 0.0875), (-0.0364544, -0.0246389, 0.0875), (-0.0384126, -0.0214586, 0.0875), (-0.0400941, -0.0181237, 0.0875), (-0.0414866, -0.0146582, 0.0875), (-0.0425803, -0.011087, 0.0875), (-0.0433671, -0.00743604, 0.0875), (-0.0438415, -0.00373146, 0.0875), (-0.044, 5.38845e-18, 0.0875), (-0.0438415, 0.00373146, 0.0875), (-0.0433671, 0.00743604, 0.0875), (-0.0425803, 0.011087, 0.0875), (-0.0414866, 0.0146582, 0.0875), (-0.0400941, 0.0181237, 0.0875), (-0.0384126, 0.0214586, 0.0875), (-0.0364544, 0.0246389, 0.0875), (-0.0342336, 0.0276417, 0.0875), (-0.0317661, 0.0304453, 0.0875), (-0.0290697, 0.0330296, 0.0875), (-0.0261639, 0.0353759, 0.0875), (-0.0230695, 0.0374673, 0.0875), (-0.019809, 0.0392887, 0.0875), (-0.0164057, 0.0408271, 0.0875), (-0.0128842, 0.0420713, 0.0875), (-0.00926989, 0.0430124, 0.0875), (-0.00558878, 0.0436436, 0.0875), (-0.00186741, 0.0439604, 0.0875), (0.00186741, 0.0439604, 0.0875), (0.00558878, 0.0436436, 0.0875), (0.00926989, 0.0430124, 0.0875), (0.0128842, 0.0420713, 0.0875), (0.0164057, 0.0408271, 0.0875), (0.019809, 0.0392887, 0.0875), (0.0230695, 0.0374673, 0.0875), (0.0261639, 0.0353759, 0.0875), (0.0290697, 0.0330296, 0.0875), (0.0317661, 0.0304453, 0.0875), (0.0342336, 0.0276417, 0.0875), (0.0364544, 0.0246389, 0.0875), (0.0384126, 0.0214586, 0.0875), (0.0400941, 0.0181237, 0.0875), (0.0414866, 0.0146582, 0.0875), (0.0425803, 0.011087, 0.0875), (0.0433671, 0.00743604, 0.0875), (0.0438415, 0.00373146, 0.0875), (-0.029, 3.55148e-18, -0.0875), (-0.044, 5.38845e-18, 0.0875), (0.039, 0, 0.0875), (0.038843, 0.00349593, 0.0875), (0.0383733, 0.00696372, 0.0875), (0.0375946, 0.0103754, 0.0875), (0.0365132, 0.0137036, 0.0875), (0.0351378, 0.0169215, 0.0875), (0.0334795, 0.0200031, 0.0875), (0.0315517, 0.0229236, 0.0875), (0.0293698, 0.0256596, 0.0875), (0.0269514, 0.028189, 0.0875), (0.0243161, 0.0304914, 0.0875), (0.021485, 0.0325484, 0.0875), (0.0184809, 0.0343432, 0.0875), (0.015328, 0.0358616, 0.0875), (0.0120517, 0.0370912, 0.0875), (0.00867832, 0.0380222, 0.0875), (0.0052351, 0.038647, 0.0875), (0.00174973, 0.0389607, 0.0875), (-0.00174973, 0.0389607, 0.0875), (-0.0052351, 0.038647, 0.0875), (-0.00867832, 0.0380222, 0.0875), (-0.0120517, 0.0370912, 0.0875), (-0.015328, 0.0358616, 0.0875), (-0.0184809, 0.0343432, 0.0875), (-0.021485, 0.0325484, 0.0875), (-0.0243161, 0.0304914, 0.0875), (-0.0269514, 0.028189, 0.0875), (-0.0293698, 0.0256596, 0.0875), (-0.0315517, 0.0229236, 0.0875), (-0.0334795, 0.0200031, 0.0875), (-0.0351378, 0.0169215, 0.0875), (-0.0365132, 0.0137036, 0.0875), (-0.0375946, 0.0103754, 0.0875), (-0.0383733, 0.00696372, 0.0875), (-0.038843, 0.00349593, 0.0875), (-0.039, 4.77612e-18, 0.0875), (-0.038843, -0.00349593, 0.0875), (-0.0383733, -0.00696372, 0.0875), (-0.0375946, -0.0103754, 0.0875), (-0.0365132, -0.0137036, 0.0875), (-0.0351378, -0.0169215, 0.0875), (-0.0334795, -0.0200031, 0.0875), (-0.0315517, -0.0229236, 0.0875), (-0.0293698, -0.0256596, 0.0875), (-0.0269514, -0.028189, 0.0875), (-0.0243161, -0.0304914, 0.0875), (-0.021485, -0.0325484, 0.0875), (-0.0184809, -0.0343432, 0.0875), (-0.015328, -0.0358616, 0.0875), (-0.0120517, -0.0370912, 0.0875), (-0.00867832, -0.0380222, 0.0875), (-0.0052351, -0.038647, 0.0875), (-0.00174973, -0.0389607, 0.0875), (0.00174973, -0.0389607, 0.0875), (0.0052351, -0.038647, 0.0875), (0.00867832, -0.0380222, 0.0875), (0.0120517, -0.0370912, 0.0875), (0.015328, -0.0358616, 0.0875), (0.0184809, -0.0343432, 0.0875), (0.021485, -0.0325484, 0.0875), (0.0243161, -0.0304914, 0.0875), (0.0269514, -0.028189, 0.0875), (0.0293698, -0.0256596, 0.0875), (0.0315517, -0.0229236, 0.0875), (0.0334795, -0.0200031, 0.0875), (0.0351378, -0.0169215, 0.0875), (0.0365132, -0.0137036, 0.0875), (0.0375946, -0.0103754, 0.0875), (0.0383733, -0.00696372, 0.0875), (0.038843, -0.00349593, 0.0875), (0.024, 0, -0.0825), (0.0238436, -0.00273579, -0.0825), (0.0233763, -0.00543592, -0.0825), (0.0226043, -0.00806519, -0.0825), (0.0215376, -0.0105893, -0.0825), (0.0201901, -0.0129754, -0.0825), (0.0185794, -0.0151923, -0.0825), (0.0167265, -0.0172112, -0.0825), (0.0146555, -0.0190057, -0.0825), (0.0123935, -0.0205524, -0.0825), (0.00996996, -0.0218312, -0.0825), (0.00741641, -0.0228254, -0.0825), (0.00476617, -0.023522, -0.0825), (0.0020538, -0.023912, -0.0825), (-0.000685345, -0.0239902, -0.0825), (-0.00341556, -0.0237557, -0.0825), (-0.00610124, -0.0232115, -0.0825), (-0.00870739, -0.0223647, -0.0825), (-0.0112, -0.0212264, -0.0825), (-0.0135466, -0.0198113, -0.0825), (-0.0157167, -0.018138, -0.0825), (-0.0176818, -0.0162282, -0.0825), (-0.0194164, -0.0141068, -0.0825), (-0.0208979, -0.0118016, -0.0825), (-0.022107, -0.00934248, -0.0825), (-0.0230278, -0.00676158, -0.0825), (-0.0236485, -0.00409253, -0.0825), (-0.0239609, -0.00137013, -0.0825), (-0.0239609, 0.00137013, -0.0825), (-0.0236485, 0.00409253, -0.0825), (-0.0230278, 0.00676158, -0.0825), (-0.022107, 0.00934248, -0.0825), (-0.0208979, 0.0118016, -0.0825), (-0.0194164, 0.0141068, -0.0825), (-0.0176818, 0.0162282, -0.0825), (-0.0157167, 0.018138, -0.0825), (-0.0135466, 0.0198113, -0.0825), (-0.0112, 0.0212264, -0.0825), (-0.00870739, 0.0223647, -0.0825), (-0.00610124, 0.0232115, -0.0825), (-0.00341556, 0.0237557, -0.0825), (-0.000685345, 0.0239902, -0.0825), (0.0020538, 0.023912, -0.0825), (0.00476617, 0.023522, -0.0825), (0.00741641, 0.0228254, -0.0825), (0.00996996, 0.0218312, -0.0825), (0.0123935, 0.0205524, -0.0825), (0.0146555, 0.0190057, -0.0825), (0.0167265, 0.0172112, -0.0825), (0.0185794, 0.0151923, -0.0825), (0.0201901, 0.0129754, -0.0825), (0.0215376, 0.0105893, -0.0825), (0.0226043, 0.00806519, -0.0825), (0.0233763, 0.00543592, -0.0825), (0.0238436, 0.00273579, -0.0825), (-0.039, 4.77612e-18, 0.0875), (-0.0239609, -0.00137013, -0.0825)]
            normal3f[] normals = [(0, 0, 1), (0, 0, 1), (0, 0, 1), (0, 0, 1), (0, 0, 1), (0, 0, 1), (0, 0, 1), (0, 0, 1), (0, 0, 1), (0, 0, 1), (0, 0, 1), (0, 0, 1), (0, 0, 1), (0, 0, 1), (0, 0, 1), (0, 0, 1), (0, 0, 1), (0, 0, 1), (0, 0, 1), (0, 0, 1), (0, 0, 1), (0, 0, 1), (0, 0, 1), (0, 0, 1), (0, 0, 1), (0, 0, 1), (0, 0, 1), (0, 0, 1), (0, 0, 1), (0, 0, 1), (0, 0, 1), (0, 0, 1), (0, 0, 1), (0, 0, 1), (0, 0, 1), (0, 0, 1), (0, 0, 1), (0, 0, 1), (0, 0, 1), (0, 0, 1), (0, 0, 1), (0, 0, 1), (0, 0, 1), (0, 0, 1), (0, 0, 1), (0, 0, 1), (0, 0, 1), (0, 0, 1), (0, 0, 1), (0, 0, 1), (0, 0, 1), (0, 0, 1), (0, 0, 1), (0, 0, 1), (0, 0, 1), (0, 0, 1), (0, 0, 1), (0, 0, 1), (0, 0, 1), (0, 0, 1), (0, 0, 1), (0, 0, 1), (0, 0, 1), (0, 0, 1), (0, 0, 1), (0, 0, 1), (0, 0, 1), (0, 0, 1), (0, 0, 1), (0, 0, 1), (0, 0, 1), (0, 0, 1), (0, 0, 1), (0, 0, 1), (0, 0, 1), (0, 0, 1), (0, 0, 1), (0, 0, 1), (0, 0, 1), (0, 0, 1), (0, 0, 1), (0, 0, 1), (0, 0, 1), (0, 0, 1), (0, 0, 1), (0, 0, 1), (0, 0, 1), (0, 0, 1), (0, 0, 1), (0, 0, 1), (0, 0, 1), (0, 0, 1), (0, 0, 1), (0, 0, 1), (0, 0, 1), (0, 0, 1), (0, 0, 1), (0, 0, 1), (0, 0, 1), (0, 0, 1), (0, 0, 1), (0, 0, 1), (0, 0, 1), (0, 0, 1), (0, 0, 1), (0, 0, 1), (0, 0, 1), (0, 0, 1), (0, 0, 1), (0, 0, 1), (0, 0, 1), (0, 0, 1), (0, 0, 1), (0, 0, 1), (0, 0, 1), (0, 0, 1), (0, 0, 1), (0, 0, 1), (0, 0, 1), (0, 0, 1), (0, 0, 1), (0, 0, 1), (0, 0, 1), (0, 0, 1), (0, 0, 1), (0, 0, 1), (0, 0, 1), (0, 0, 1), (0, 0, 1), (0, 0, 1), (0, 0, 1), (0, 0, 1), (0, 0, 1), (0, 0, 1), (0, 0, 1), (0, 0, 1), (0, 0, 1), (0, 0, 1), (0, 0, 1), (0, 0, 1), (0, 0, 1), (0, 0, 1), (0, 0, 1), (0, 0, 1), (0, 0, 1), (0, 0, 1), (0, 0, 1), (0, 0, 1), (0, 0, 1), (0, 0, 1), (0, 0, 1), (0, 0, 1), (0, 0, 1), (0, 0, 1), (0, 0, 1), (0, 0, 1), (0, 0, 1), (0, 0, 1), (0, 0, 1), (0, 0, 1), (0, 0, 1), (0, 0, 1), (0, 0, 1), (0, 0, 1), (0, 0, 1), (0, 0, 1), (0, 0, 1), (0, 0, 1), (0, 0, 1), (0, 0, 1), (0, 0, 1), (0, 0, 1), (0, 0, 1), (0, 0, 1), (0, 0, 1), (0, 0, 1), (0, 0, 1), (0, 0, 1), (0, 0, 1), (0, 0, 1), (0, 0, 1), (0, 0, 1), (0, 0, 1), (0, 0, 1), (0, 0, 1), (0, 0, 1), (0, 0, 1), (0, 0, 1), (0, 0, 1), (0, 0, 1), (0, 0, 1), (0, 0, 1), (0, 0, 1), (0, 0, 1), (0, 0, 1), (0, 0, 1), (0, 0, 1), (0, 0, 1), (0, 0, 1), (-0, -0, -1), (-0, -0, -1), (-0, -0, -1), (-0, -0, -1), (-0, -0, -1), (-0, -0, -1), (-0, -0, -1), (-0, -0, -1), (-0, -0, -1), (-0, -0, -1), (-0, -0, -1), (-0, -0, -1), (-0, -0, -1), (-0, -0, -1), (-0, -0, -1), (-0, -0, -1), (-0, -0, -1), (-0, -0, -1), (-0, -0, -1), (-0, -0, -1), (-0, -0, -1), (-0, -0, -1), (-0, -0, -1), (-0, -0, -1), (-0, -0, -1), (-0, -0, -1), (-0, -0, -1), (-0, -0, -1), (-0, -0, -1), (-0, -0, -1), (-0, -0, -1), (-0, -0, -1), (-0, -0, -1), (-0, -0, -1), (-0, -0, -1), (-0, -0, -1), (-0, -0, -1), (-0, -0, -1), (-0, -0, -1), (-0, -0, -1), (-0, -0, -1), (-0, -0, -1), (-0, -0, -1), (-0, -0, -1), (-0, -0, -1), (-0, -0, -1), (-0, -0, -1), (-0, -0, -1), (-0, -0, -1), (-0, -0, -1), (-0, -0, -1), (-0, -0, -1), (-0, -0, -1), (-0, -0, -1), (-0, -0, -1), (-0, -0, -1), (-0, -0, -1), (-0, -0, -1), (-0, -0, -1), (-0, -0, -1), (0.9963, -0, -0.0854), (0.9909, 0.1041, -0.0854), (0.9746, 0.2072, -0.0854), (0.9476, 0.3079, -0.0854), (0.9102, 0.4053, -0.0854), (0.8629, 0.4982, -0.0854), (0.8061, 0.5856, -0.0854), (0.7404, 0.6667, -0.0854), (0.6667, 0.7404, -0.0854), (0.5856, 0.8061, -0.0854), (0.4982, 0.8629, -0.0854), (0.4053, 0.9102, -0.0854), (0.3079, 0.9476, -0.0854), (0.2072, 0.9746, -0.0854), (0.1041, 0.9909, -0.0854), (6.101e-17, 0.9963, -0.0854), (-0.1041, 0.9909, -0.0854), (-0.2072, 0.9746, -0.0854), (-0.3079, 0.9476, -0.0854), (-0.4053, 0.9102, -0.0854), (-0.4982, 0.8629, -0.0854), (-0.5856, 0.8061, -0.0854), (-0.6667, 0.7404, -0.0854), (-0.7404, 0.6667, -0.0854), (-0.8061, 0.5856, -0.0854), (-0.8629, 0.4982, -0.0854), (-0.9102, 0.4053, -0.0854), (-0.9476, 0.3079, -0.0854), (-0.9746, 0.2072, -0.0854), (-0.9909, 0.1041, -0.0854), (-0.9963, -1.22e-16, -0.0854), (-0.9909, -0.1041, -0.0854), (-0.9746, -0.2072, -0.0854), (-0.9476, -0.3079, -0.0854), (-0.9102, -0.4053, -0.0854), (-0.8629, -0.4982, -0.0854), (-0.8061, -0.5856, -0.0854), (-0.7404, -0.6667, -0.0854), (-0.6667, -0.7404, -0.0854), (-0.5856, -0.8061, -0.0854), (-0.4982, -0.8629, -0.0854), (-0.4053, -0.9102, -0.0854), (-0.3079, -0.9476, -0.0854), (-0.2072, -0.9746, -0.0854), (-0.1041, -0.9909, -0.0854), (-1.602e-16, -0.9963, -0.0854), (0.1041, -0.9909, -0.0854), (0.2072, -0.9746, -0.0854), (0.3079, -0.9476, -0.0854), (0.4053, -0.9102, -0.0854), (0.4982, -0.8629, -0.0854), (0.5856, -0.8061, -0.0854), (0.6667, -0.7404, -0.0854), (0.7404, -0.6667, -0.0854), (0.8061, -0.5856, -0.0854), (0.8629, -0.4982, -0.0854), (0.9102, -0.4053, -0.0854), (0.9476, -0.3079, -0.0854), (0.9746, -0.2072, -0.0854), (0.9909, -0.1041, -0.0854), (0.9963, -0, -0.0854), (0.9928, -0.0845, -0.0854), (0.982, -0.1684, -0.0854), (0.9642, -0.2511, -0.0854), (0.9394, -0.3319, -0.0854), (0.9079, -0.4104, -0.0854), (0.8698, -0.4859, -0.0854), (0.8255, -0.5579, -0.0854), (0.7752, -0.6259, -0.0854), (0.7193, -0.6894, -0.0854), (0.6583, -0.7479, -0.0854), (0.5925, -0.8011, -0.0854), (0.5224, -0.8484, -0.0854), (0.4486, -0.8897, -0.0854), (0.3715, -0.9245, -0.0854), (0.2918, -0.9527, -0.0854), (0.2099, -0.974, -0.0854), (0.1266, -0.9883, -0.0854), (0.04229, -0.9954, -0.0854), (-0.04229, -0.9954, -0.0854), (-0.1266, -0.9883, -0.0854), (-0.2099, -0.974, -0.0854), (-0.2918, -0.9527, -0.0854), (-0.3715, -0.9245, -0.0854), (-0.4486, -0.8897, -0.0854), (-0.5224, -0.8484, -0.0854), (-0.5925, -0.8011, -0.0854), (-0.6583, -0.7479, -0.0854), (-0.7193, -0.6894, -0.0854), (-0.7752, -0.6259, -0.0854), (-0.8255, -0.5579, -0.0854), (-0.8698, -0.4859, -0.0854), (-0.9079, -0.4104, -0.0854), (-0.9394, -0.3319, -0.0854), (-0.9642, -0.2511, -0.0854), (-0.982, -0.1684, -0.0854), (-0.9928, -0.0845, -0.0854), (-0.9963, 1.22e-16, -0.0854), (-0.9928, 0.0845, -0.0854), (-0.982, 0.1684, -0.0854), (-0.9642, 0.2511, -0.0854), (-0.9394, 0.3319, -0.0854), (-0.9079, 0.4104, -0.0854), (-0.8698, 0.4859, -0.0854), (-0.8255, 0.5579, -0.0854), (-0.7752, 0.6259, -0.0854), (-0.7193, 0.6894, -0.0854), (-0.6583, 0.7479, -0.0854), (-0.5925, 0.8011, -0.0854), (-0.5224, 0.8484, -0.0854), (-0.4486, 0.8897, -0.0854), (-0.3715, 0.9245, -0.0854), (-0.2918, 0.9527, -0.0854), (-0.2099, 0.974, -0.0854), (-0.1266, 0.9883, -0.0854), (-0.04229, 0.9954, -0.0854), (0.04229, 0.9954, -0.0854), (0.1266, 0.9883, -0.0854), (0.2099, 0.974, -0.0854), (0.2918, 0.9527, -0.0854), (0.3715, 0.9245, -0.0854), (0.4486, 0.8897, -0.0854), (0.5224, 0.8484, -0.0854), (0.5925, 0.8011, -0.0854), (0.6583, 0.7479, -0.0854), (0.7193, 0.6894, -0.0854), (0.7752, 0.6259, -0.0854), (0.8255, 0.5579, -0.0854), (0.8698, 0.4859, -0.0854), (0.9079, 0.4104, -0.0854), (0.9394, 0.3319, -0.0854), (0.9642, 0.2511, -0.0854), (0.982, 0.1684, -0.0854), (0.9928, 0.0845, -0.0854), (-0.9963, 1.22e-16, -0.0854), (-0.9963, -1.22e-16, -0.0854), (-0.9961, 0, 0.08789), (-0.9921, -0.08929, 0.08789), (-0.9801, -0.1779, 0.08789), (-0.9602, -0.265, 0.08789), (-0.9326, -0.35, 0.08789), (-0.8975, -0.4322, 0.08789), (-0.8551, -0.5109, 0.08789), (-0.8059, -0.5855, 0.08789), (-0.7502, -0.6554, 0.08789), (-0.6884, -0.72, 0.08789), (-0.6211, -0.7788, 0.08789), (-0.5488, -0.8313, 0.08789), (-0.472, -0.8772, 0.08789), (-0.3915, -0.916, 0.08789), (-0.3078, -0.9474, 0.08789), (-0.2217, -0.9712, 0.08789), (-0.1337, -0.9871, 0.08789), (-0.04469, -0.9951, 0.08789), (0.04469, -0.9951, 0.08789), (0.1337, -0.9871, 0.08789), (0.2217, -0.9712, 0.08789), (0.3078, -0.9474, 0.08789), (0.3915, -0.916, 0.08789), (0.472, -0.8772, 0.08789), (0.5488, -0.8313, 0.08789), (0.6211, -0.7788, 0.08789), (0.6884, -0.72, 0.08789), (0.7502, -0.6554, 0.08789), (0.8059, -0.5855, 0.08789), (0.8551, -0.5109, 0.08789), (0.8975, -0.4322, 0.08789), (0.9326, -0.35, 0.08789), (0.9602, -0.265, 0.08789), (0.9801, -0.1779, 0.08789), (0.9921, -0.08929, 0.08789), (0.9961, 1.22e-16, 0.08789), (0.9921, 0.08929, 0.08789), (0.9801, 0.1779, 0.08789), (0.9602, 0.265, 0.08789), (0.9326, 0.35, 0.08789), (0.8975, 0.4322, 0.08789), (0.8551, 0.5109, 0.08789), (0.8059, 0.5855, 0.08789), (0.7502, 0.6554, 0.08789), (0.6884, 0.72, 0.08789), (0.6211, 0.7788, 0.08789), (0.5488, 0.8313, 0.08789), (0.472, 0.8772, 0.08789), (0.3915, 0.916, 0.08789), (0.3078, 0.9474, 0.08789), (0.2217, 0.9712, 0.08789), (0.1337, 0.9871, 0.08789), (0.04469, 0.9951, 0.08789), (-0.04469, 0.9951, 0.08789), (-0.1337, 0.9871, 0.08789), (-0.2217, 0.9712, 0.08789), (-0.3078, 0.9474, 0.08789), (-0.3915, 0.916, 0.08789), (-0.472, 0.8772, 0.08789), (-0.5488, 0.8313, 0.08789), (-0.6211, 0.7788, 0.08789), (-0.6884, 0.72, 0.08789), (-0.7502, 0.6554, 0.08789), (-0.8059, 0.5855, 0.08789), (-0.8551, 0.5109, 0.08789), (-0.8975, 0.4322, 0.08789), (-0.9326, 0.35, 0.08789), (-0.9602, 0.265, 0.08789), (-0.9801, 0.1779, 0.08789), (-0.9921, 0.08929, 0.08789), (-0.9961, 0, 0.08789), (-0.9896, 0.1136, 0.08789), (-0.9702, 0.2256, 0.08789), (-0.9382, 0.3347, 0.08789), (-0.8939, 0.4395, 0.08789), (-0.838, 0.5385, 0.08789), (-0.7711, 0.6306, 0.08789), (-0.6942, 0.7144, 0.08789), (-0.6083, 0.7888, 0.08789), (-0.5144, 0.853, 0.08789), (-0.4138, 0.9061, 0.08789), (-0.3078, 0.9474, 0.08789), (-0.1978, 0.9763, 0.08789), (-0.08524, 0.9925, 0.08789), (0.02845, 0.9957, 0.08789), (0.1418, 0.986, 0.08789), (0.2532, 0.9634, 0.08789), (0.3614, 0.9283, 0.08789), (0.4649, 0.881, 0.08789), (0.5623, 0.8223, 0.08789), (0.6523, 0.7528, 0.08789), (0.7339, 0.6736, 0.08789), (0.8059, 0.5855, 0.08789), (0.8674, 0.4898, 0.08789), (0.9176, 0.3878, 0.08789), (0.9558, 0.2806, 0.08789), (0.9815, 0.1699, 0.08789), (0.9945, 0.05687, 0.08789), (0.9945, -0.05687, 0.08789), (0.9815, -0.1699, 0.08789), (0.9558, -0.2806, 0.08789), (0.9176, -0.3878, 0.08789), (0.8674, -0.4898, 0.08789), (0.8059, -0.5855, 0.08789), (0.7339, -0.6736, 0.08789), (0.6523, -0.7528, 0.08789), (0.5623, -0.8223, 0.08789), (0.4649, -0.881, 0.08789), (0.3614, -0.9283, 0.08789), (0.2532, -0.9634, 0.08789), (0.1418, -0.986, 0.08789), (0.02845, -0.9957, 0.08789), (-0.08524, -0.9925, 0.08789), (-0.1978, -0.9763, 0.08789), (-0.3078, -0.9474, 0.08789), (-0.4138, -0.9061, 0.08789), (-0.5144, -0.853, 0.08789), (-0.6083, -0.7888, 0.08789), (-0.6942, -0.7144, 0.08789), (-0.7711, -0.6306, 0.08789), (-0.838, -0.5385, 0.08789), (-0.8939, -0.4395, 0.08789), (-0.9382, -0.3347, 0.08789), (-0.9702, -0.2256, 0.08789), (-0.9896, -0.1136, 0.08789), (0.9961, -1.22e-16, 0.08789), (0.9945, 0.05687, 0.08789)] (
                interpolation = "vertex"
            )
        }
    }
    def Mesh "Collision" (
        prepend apiSchemas = ["PhysicsCollisionAPI", "PhysicsMeshCollisionAPI"]
    )
    {
        bool physics:collisionEnabled = 1
        uniform token physics:approximation = "convexDecomposition"
        uniform token subdivisionScheme = "none"
        token visibility = "invisible"
        int[] faceVertexCounts = [3, 3, 3, 3, 3, 3, 3, 3, 3, 3, 3, 3, 3, 3, 3, 3, 3, 3, 3, 3, 3, 3, 3, 3, 3, 3, 3, 3, 3, 3, 3, 3, 3, 3, 3, 3, 3, 3, 3, 3, 3, 3, 3, 3, 3, 3, 3, 3, 3, 3, 3, 3, 3, 3, 3, 3, 3, 3, 3, 3, 3, 3, 3, 3, 3, 3, 3, 3, 3, 3, 3, 3, 3, 3, 3, 3, 3, 3, 3, 3, 3, 3, 3, 3, 3, 3, 3, 3, 3, 3, 3, 3, 3, 3, 3, 3, 3, 3, 3, 3, 3, 3, 3, 3, 3, 3, 3, 3, 3, 3, 3, 3, 3, 3, 3, 3, 3, 3, 3, 3, 3, 3, 3, 3, 3, 3, 3, 3, 3, 3, 3, 3, 3, 3, 3, 3, 3, 3, 3, 3, 3, 3, 3, 3, 3, 3, 3, 3, 3, 3, 3, 3, 3, 3, 3, 3, 3, 3, 3, 3, 3, 3, 3, 3, 3, 3, 3, 3, 3, 3, 3, 3, 3, 3, 3, 3, 3, 3, 3, 3, 3, 3, 3, 3, 3, 3, 3, 3, 3, 3, 3, 3, 3, 3, 3, 3, 3, 3, 3, 3, 3, 3, 3, 3, 3, 3, 3, 3, 3, 3, 3, 3, 3, 3, 3, 3, 3, 3, 3, 3, 3, 3, 3, 3, 3, 3, 3, 3, 3, 3, 3, 3, 3, 3, 3, 3, 3, 3, 3, 3, 3, 3, 3, 3, 3, 3, 3, 3, 3, 3, 3, 3, 3, 3, 3, 3, 3, 3, 3, 3, 3, 3, 3, 3, 3, 3, 3, 3, 3, 3, 3, 3, 3, 3, 3, 3, 3, 3, 3, 3, 3, 3, 3, 3, 3, 3, 3, 3, 3, 3, 3, 3, 3, 3, 3, 3, 3, 3, 3, 3, 3, 3, 3, 3, 3, 3, 3, 3, 3, 3, 3, 3, 3, 3, 3, 3, 3, 3, 3, 3, 3, 3, 3, 3, 3, 3, 3, 3, 3, 3, 3, 3, 3, 3, 3, 3, 3, 3, 3, 3, 3, 3, 3, 3, 3, 3, 3, 3, 3, 3, 3, 3, 3, 3, 3, 3, 3, 3, 3, 3, 3, 3, 3, 3, 3, 3, 3, 3, 3, 3, 3, 3, 3, 3, 3, 3, 3, 3, 3, 3, 3, 3, 3, 3, 3, 3, 3, 3, 3, 3, 3, 3, 3, 3, 3, 3, 3, 3, 3, 3, 3, 3, 3, 3, 3, 3, 3, 3, 3, 3, 3, 3, 3, 3, 3, 3, 3, 3, 3, 3, 3, 3, 3, 3, 3, 3, 3, 3, 3, 3, 3, 3, 3, 3, 3, 3, 3, 3, 3, 3, 3, 3, 3, 3, 3, 3, 3, 3, 3, 3, 3, 3, 3, 3, 3, 3, 3, 3, 3, 3, 3, 3, 3, 3, 3, 3, 3, 3, 3, 3, 3, 3, 3, 3, 3, 3, 3, 3, 3, 3, 3, 3, 3, 3, 3, 3, 3, 3, 3, 3, 3, 3, 3, 3, 3, 3, 3, 3, 3, 3, 3, 3, 3, 3, 3, 3, 3, 3, 3, 3, 3, 3, 3, 3]
        int[] faceVertexIndices = [73, 0, 74, 74, 0, 1, 74, 1, 143, 143, 1, 2, 143, 2, 142, 142, 2, 3, 142, 3, 141, 141, 3, 4, 141, 4, 140, 140, 4, 5, 140, 5, 139, 139, 5, 6, 139, 6, 138, 138, 6, 7, 138, 7, 137, 137, 7, 8, 137, 8, 136, 136, 8, 9, 136, 9, 135, 135, 9, 10, 135, 10, 134, 134, 10, 11, 134, 11, 133, 133, 11, 12, 133, 12, 132, 132, 12, 13, 132, 13, 131, 131, 13, 14, 131, 14, 130, 130, 14, 15, 130, 15, 129, 129, 15, 16, 129, 16, 128, 128, 16, 17, 128, 17, 127, 127, 17, 18, 127, 18, 19, 127, 19, 126, 126, 19, 20, 126, 20, 125, 125, 20, 21, 125, 21, 124, 124, 21, 22, 124, 22, 123, 123, 22, 23, 123, 23, 122, 122, 23, 24, 122, 24, 121, 121, 24, 25, 121, 25, 120, 120, 25, 26, 120, 26, 119, 119, 26, 27, 119, 27, 118, 118, 27, 28, 118, 28, 117, 117, 28, 29, 117, 29, 116, 116, 29, 30, 116, 30, 115, 115, 30, 31, 115, 31, 114, 114, 31, 32, 114, 32, 113, 113, 32, 33, 113, 33, 112, 112, 33, 34, 112, 34, 111, 111, 34, 35, 111, 35, 110, 110, 35, 36, 110, 36, 109, 109, 36, 37, 109, 37, 38, 109, 38, 108, 108, 38, 39, 108, 39, 107, 107, 39, 40, 107, 40, 106, 106, 40, 41, 106, 41, 105, 105, 41, 42, 105, 42, 104, 104, 42, 43, 104, 43, 103, 103, 43, 44, 103, 44, 102, 102, 44, 45, 102, 45, 101, 101, 45, 46, 101, 46, 100, 100, 46, 47, 100, 47, 99, 99, 47, 48, 99, 48, 98, 98, 48, 49, 98, 49, 97, 97, 49, 50, 97, 50, 96, 96, 50, 51, 96, 51, 95, 95, 51, 52, 95, 52, 94, 94, 52, 53, 94, 53, 93, 93, 53, 54, 93, 54, 92, 92, 54, 55, 92, 55, 56, 92, 56, 91, 91, 56, 57, 91, 57, 90, 90, 57, 58, 90, 58, 89, 89, 58, 59, 89, 59, 88, 88, 59, 60, 88, 60, 87, 87, 60, 61, 87, 61, 86, 86, 61, 62, 86, 62, 85, 85, 62, 63, 85, 63, 84, 84, 63, 64, 84, 64, 83, 83, 64, 65, 83, 65, 82, 82, 65, 66, 82, 66, 81, 81, 66, 67, 81, 67, 80, 80, 67, 68, 80, 68, 79, 79, 68, 69, 79, 69, 78, 78, 69, 70, 78, 70, 77, 77, 70, 71, 77, 71, 76, 76, 71, 72, 76, 72, 75, 75, 72, 73, 75, 73, 74, 144, 145, 198, 198, 145, 146, 198, 146, 147, 147, 148, 198, 198, 148, 149, 198, 149, 150, 150, 151, 198, 198, 151, 152, 198, 152, 153, 153, 154, 198, 198, 154, 155, 198, 155, 156, 156, 157, 198, 198, 157, 158, 198, 158, 159, 159, 160, 198, 198, 160, 161, 198, 161, 197, 197, 161, 162, 197, 162, 163, 163, 164, 197, 197, 164, 165, 197, 165, 166, 166, 167, 197, 197, 167, 168, 197, 168, 169, 169, 170, 197, 197, 170, 171, 197, 171, 172, 172, 173, 197, 197, 173, 174, 197, 174, 196, 196, 174, 175, 196, 175, 195, 195, 175, 176, 195, 176, 194, 194, 176, 177, 194, 177, 193, 193, 177, 178, 193, 178, 192, 192, 178, 179, 192, 179, 191, 191, 179, 180, 191, 180, 190, 190, 180, 181, 190, 181, 189, 189, 181, 182, 189, 182, 188, 188, 182, 183, 188, 183, 187, 187, 183, 184, 187, 184, 186, 186, 184, 185, 200, 228, 199, 199, 228, 229, 199, 229, 258, 258, 229, 230, 258, 230, 257, 257, 230, 231, 257, 231, 256, 256, 231, 232, 256, 232, 255, 255, 232, 233, 255, 233, 254, 254, 233, 234, 254, 234, 253, 253, 234, 235, 253, 235, 252, 252, 235, 236, 252, 236, 251, 251, 236, 237, 251, 237, 250, 250, 237, 238, 250, 238, 249, 249, 238, 239, 249, 239, 248, 248, 239, 240, 248, 240, 247, 247, 240, 241, 247, 241, 246, 246, 241, 242, 246, 242, 245, 245, 242, 243, 245, 243, 244, 228, 200, 227, 227, 200, 201, 227, 201, 226, 226, 201, 202, 226, 202, 225, 225, 202, 203, 225, 203, 224, 224, 203, 204, 224, 204, 223, 223, 204, 205, 223, 205, 222, 222, 205, 206, 222, 206, 221, 221, 206, 207, 221, 207, 220, 220, 207, 208, 220, 208, 219, 219, 208, 209, 219, 209, 218, 218, 209, 210, 218, 210, 217, 217, 210, 211, 217, 211, 216, 216, 211, 212, 216, 212, 215, 215, 212, 213, 215, 213, 214, 260, 392, 259, 259, 392, 319, 259, 319, 320, 392, 260, 391, 391, 260, 261, 391, 261, 390, 390, 261, 262, 390, 262, 389, 389, 262, 263, 389, 263, 388, 388, 263, 387, 387, 263, 264, 387, 264, 386, 386, 264, 265, 386, 265, 385, 385, 265, 266, 385, 266, 384, 384, 266, 267, 384, 267, 383, 383, 267, 268, 383, 268, 382, 382, 268, 381, 381, 268, 269, 381, 269, 380, 380, 269, 270, 380, 270, 379, 379, 270, 271, 379, 271, 378, 378, 271, 272, 378, 272, 377, 377, 272, 376, 376, 272, 273, 376, 273, 375, 375, 273, 274, 375, 274, 374, 374, 274, 275, 374, 275, 373, 373, 275, 276, 373, 276, 372, 372, 276, 371, 371, 276, 277, 371, 277, 370, 370, 277, 278, 370, 278, 369, 369, 278, 279, 369, 279, 368, 368, 279, 280, 368, 280, 367, 367, 280, 366, 366, 280, 281, 366, 281, 365, 365, 281, 282, 365, 282, 364, 364, 282, 283, 364, 283, 363, 363, 283, 284, 363, 284, 362, 362, 284, 285, 362, 285, 361, 361, 285, 360, 360, 285, 286, 360, 286, 359, 359, 286, 287, 359, 287, 358, 358, 287, 288, 358, 288, 357, 357, 288, 393, 357, 393, 356, 394, 289, 355, 355, 289, 290, 355, 290, 354, 354, 290, 291, 354, 291, 353, 353, 291, 292, 353, 292, 352, 352, 292, 293, 352, 293, 351, 351, 293, 350, 350, 293, 294, 350, 294, 349, 349, 294, 295, 349, 295, 348, 348, 295, 296, 348, 296, 347, 347, 296, 297, 347, 297, 346, 346, 297, 298, 346, 298, 345, 345, 298, 344, 344, 298, 299, 344, 299, 343, 343, 299, 300, 343, 300, 342, 342, 300, 301, 342, 301, 341, 341, 301, 302, 341, 302, 340, 340, 302, 339, 339, 302, 303, 339, 303, 338, 338, 303, 304, 338, 304, 337, 337, 304, 305, 337, 305, 336, 336, 305, 306, 336, 306, 335, 335, 306, 334, 334, 306, 307, 334, 307, 333, 333, 307, 308, 333, 308, 332, 332, 308, 309, 332, 309, 331, 331, 309, 310, 331, 310, 330, 330, 310, 329, 329, 310, 311, 329, 311, 328, 328, 311, 312, 328, 312, 327, 327, 312, 313, 327, 313, 326, 326, 313, 314, 326, 314, 325, 325, 314, 315, 325, 315, 324, 324, 315, 323, 323, 315, 316, 323, 316, 322, 322, 316, 317, 322, 317, 321, 321, 317, 318, 321, 318, 320, 320, 318, 259, 464, 395, 465, 465, 395, 396, 465, 396, 519, 519, 396, 397, 519, 397, 518, 518, 397, 398, 518, 398, 517, 517, 398, 399, 517, 399, 516, 516, 399, 400, 516, 400, 401, 516, 401, 515, 515, 401, 402, 515, 402, 514, 514, 402, 403, 514, 403, 513, 513, 403, 404, 513, 404, 405, 513, 405, 512, 512, 405, 406, 512, 406, 511, 511, 406, 407, 511, 407, 510, 510, 407, 408, 510, 408, 509, 509, 408, 409, 509, 409, 410, 509, 410, 508, 508, 410, 411, 508, 411, 507, 507, 411, 412, 507, 412, 506, 506, 412, 413, 506, 413, 505, 505, 413, 414, 505, 414, 415, 505, 415, 504, 504, 415, 416, 504, 416, 503, 503, 416, 417, 503, 417, 502, 502, 417, 418, 502, 418, 419, 502, 419, 501, 501, 419, 420, 501, 420, 500, 500, 420, 421, 500, 421, 499, 499, 421, 422, 499, 422, 498, 498, 422, 423, 498, 423, 424, 498, 424, 497, 497, 424, 425, 497, 425, 496, 496, 425, 426, 496, 426, 495, 495, 426, 427, 495, 427, 494, 494, 427, 428, 494, 428, 429, 494, 429, 493, 493, 429, 520, 493, 520, 492, 521, 430, 431, 521, 431, 491, 491, 431, 432, 491, 432, 433, 491, 433, 490, 490, 433, 434, 490, 434, 489, 489, 434, 435, 489, 435, 488, 488, 435, 436, 488, 436, 487, 487, 436, 437, 487, 437, 438, 487, 438, 486, 486, 438, 439, 486, 439, 485, 485, 439, 440, 485, 440, 484, 484, 440, 441, 484, 441, 483, 483, 441, 442, 483, 442, 443, 483, 443, 482, 482, 443, 444, 482, 444, 481, 481, 444, 445, 481, 445, 480, 480, 445, 446, 480, 446, 447, 480, 447, 479, 479, 447, 448, 479, 448, 478, 478, 448, 449, 478, 449, 477, 477, 449, 450, 477, 450, 476, 476, 450, 451, 476, 451, 452, 476, 452, 475, 475, 452, 453, 475, 453, 474, 474, 453, 454, 474, 454, 473, 473, 454, 455, 473, 455, 472, 472, 455, 456, 472, 456, 457, 472, 457, 471, 471, 457, 458, 471, 458, 470, 470, 458, 459, 470, 459, 469, 469, 459, 460, 469, 460, 461, 469, 461, 468, 468, 461, 462, 468, 462, 467, 467, 462, 463, 467, 463, 466, 466, 463, 464, 466, 464, 465]
        point3f[] points = [(0.044, 0, 0.0875), (0.0438415, 0.00373146, 0.0875), (0.0433671, 0.00743604, 0.0875), (0.0425803, 0.011087, 0.0875), (0.0414866, 0.0146582, 0.0875), (0.0400941, 0.0181237, 0.0875), (0.0384126, 0.0214586, 0.0875), (0.0364544, 0.0246389, 0.0875), (0.0342336, 0.0276417, 0.0875), (0.0317661, 0.0304453, 0.0875), (0.0290697, 0.0330296, 0.0875), (0.0261639, 0.0353759, 0.0875), (0.0230695, 0.0374673, 0.0875), (0.019809, 0.0392887, 0.0875), (0.0164057, 0.0408271, 0.0875), (0.0128842, 0.0420713, 0.0875), (0.00926989, 0.0430124, 0.0875), (0.00558878, 0.0436436, 0.0875), (0.00186741, 0.0439604, 0.0875), (-0.00186741, 0.0439604, 0.0875), (-0.00558878, 0.0436436, 0.0875), (-0.00926989, 0.0430124, 0.0875), (-0.0128842, 0.0420713, 0.0875), (-0.0164057, 0.0408271, 0.0875), (-0.019809, 0.0392887, 0.0875), (-0.0230695, 0.0374673, 0.0875), (-0.0261639, 0.0353759, 0.0875), (-0.0290697, 0.0330296, 0.0875), (-0.0317661, 0.0304453, 0.0875), (-0.0342336, 0.0276417, 0.0875), (-0.0364544, 0.0246389, 0.0875), (-0.0384126, 0.0214586, 0.0875), (-0.0400941, 0.0181237, 0.0875), (-0.0414866, 0.0146582, 0.0875), (-0.0425803, 0.011087, 0.0875), (-0.0433671, 0.00743604, 0.0875), (-0.0438415, 0.00373146, 0.0875), (-0.044, 5.38845e-18, 0.0875), (-0.0438415, -0.00373146, 0.0875), (-0.0433671, -0.00743604, 0.0875), (-0.0425803, -0.011087, 0.0875), (-0.0414866, -0.0146582, 0.0875), (-0.0400941, -0.0181237, 0.0875), (-0.0384126, -0.0214586, 0.0875), (-0.0364544, -0.0246389, 0.0875), (-0.0342336, -0.0276417, 0.0875), (-0.0317661, -0.0304453, 0.0875), (-0.0290697, -0.0330296, 0.0875), (-0.0261639, -0.0353759, 0.0875), (-0.0230695, -0.0374673, 0.0875), (-0.019809, -0.0392887, 0.0875), (-0.0164057, -0.0408271, 0.0875), (-0.0128842, -0.0420713, 0.0875), (-0.00926989, -0.0430124, 0.0875), (-0.00558878, -0.0436436, 0.0875), (-0.00186741, -0.0439604, 0.0875), (0.00186741, -0.0439604, 0.0875), (0.00558878, -0.0436436, 0.0875), (0.00926989, -0.0430124, 0.0875), (0.0128842, -0.0420713, 0.0875), (0.0164057, -0.0408271, 0.0875), (0.019809, -0.0392887, 0.0875), (0.0230695, -0.0374673, 0.0875), (0.0261639, -0.0353759, 0.0875), (0.0290697, -0.0330296, 0.0875), (0.0317661, -0.0304453, 0.0875), (0.0342336, -0.0276417, 0.0875), (0.0364544, -0.0246389, 0.0875), (0.0384126, -0.0214586, 0.0875), (0.0400941, -0.0181237, 0.0875), (0.0414866, -0.0146582, 0.0875), (0.0425803, -0.011087, 0.0875), (0.0433671, -0.00743604, 0.0875), (0.0438415, -0.00373146, 0.0875), (0.039, 0, 0.0875), (0.038843, -0.00349593, 0.0875), (0.0383733, -0.00696372, 0.0875), (0.0375946, -0.0103754, 0.0875), (0.0365132, -0.0137036, 0.0875), (0.0351378, -0.0169215, 0.0875), (0.0334795, -0.0200031, 0.0875), (0.0315517, -0.0229236, 0.0875), (0.0293698, -0.0256596, 0.0875), (0.0269514, -0.028189, 0.0875), (0.0243161, -0.0304914, 0.0875), (0.021485, -0.0325484, 0.0875), (0.0184809, -0.0343432, 0.0875), (0.015328, -0.0358616, 0.0875), (0.0120517, -0.0370912, 0.0875), (0.00867832, -0.0380222, 0.0875), (0.0052351, -0.038647, 0.0875), (0.00174973, -0.0389607, 0.0875), (-0.00174973, -0.0389607, 0.0875), (-0.0052351, -0.038647, 0.0875), (-0.00867832, -0.0380222, 0.0875), (-0.0120517, -0.0370912, 0.0875), (-0.015328, -0.0358616, 0.0875), (-0.0184809, -0.0343432, 0.0875), (-0.021485, -0.0325484, 0.0875), (-0.0243161, -0.0304914, 0.0875), (-0.0269514, -0.028189, 0.0875), (-0.0293698, -0.0256596, 0.0875), (-0.0315517, -0.0229236, 0.0875), (-0.0334795, -0.0200031, 0.0875), (-0.0351378, -0.0169215, 0.0875), (-0.0365132, -0.0137036, 0.0875), (-0.0375946, -0.0103754, 0.0875), (-0.0383733, -0.00696372, 0.0875), (-0.038843, -0.00349593, 0.0875), (-0.039, 4.77612e-18, 0.0875), (-0.038843, 0.00349593, 0.0875), (-0.0383733, 0.00696372, 0.0875), (-0.0375946, 0.0103754, 0.0875), (-0.0365132, 0.0137036, 0.0875), (-0.0351378, 0.0169215, 0.0875), (-0.0334795, 0.0200031, 0.0875), (-0.0315517, 0.0229236, 0.0875), (-0.0293698, 0.0256596, 0.0875), (-0.0269514, 0.028189, 0.0875), (-0.0243161, 0.0304914, 0.0875), (-0.021485, 0.0325484, 0.0875), (-0.0184809, 0.0343432, 0.0875), (-0.015328, 0.0358616, 0.0875), (-0.0120517, 0.0370912, 0.0875), (-0.00867832, 0.0380222, 0.0875), (-0.0052351, 0.038647, 0.0875), (-0.00174973, 0.0389607, 0.0875), (0.00174973, 0.0389607, 0.0875), (0.0052351, 0.038647, 0.0875), (0.00867832, 0.0380222, 0.0875), (0.0120517, 0.0370912, 0.0875), (0.015328, 0.0358616, 0.0875), (0.0184809, 0.0343432, 0.0875), (0.021485, 0.0325484, 0.0875), (0.0243161, 0.0304914, 0.0875), (0.0269514, 0.028189, 0.0875), (0.0293698, 0.0256596, 0.0875), (0.0315517, 0.0229236, 0.0875), (0.0334795, 0.0200031, 0.0875), (0.0351378, 0.0169215, 0.0875), (0.0365132, 0.0137036, 0.0875), (0.0375946, 0.0103754, 0.0875), (0.0383733, 0.00696372, 0.0875), (0.038843, 0.00349593, 0.0875), (0.024, 0, -0.0825), (0.0238436, 0.00273579, -0.0825), (0.0233763, 0.00543592, -0.0825), (0.0226043, 0.00806519, -0.0825), (0.0215376, 0.0105893, -0.0825), (0.0201901, 0.0129754, -0.0825), (0.0185794, 0.0151923, -0.0825), (0.0167265, 0.0172112, -0.0825), (0.0146555, 0.0190057, -0.0825), (0.0123935, 0.0205524, -0.0825), (0.00996996, 0.0218312, -0.0825), (0.00741641, 0.0228254, -0.0825), (0.00476617, 0.023522, -0.0825), (0.0020538, 0.023912, -0.0825), (-0.000685345, 0.0239902, -0.0825), (-0.00341556, 0.0237557, -0.0825), (-0.00610124, 0.0232115, -0.0825), (-0.00870739, 0.0223647, -0.0825), (-0.0112, 0.0212264, -0.0825), (-0.0135466, 0.0198113, -0.0825), (-0.0157167, 0.018138, -0.0825), (-0.0176818, 0.0162282, -0.0825), (-0.0194164, 0.0141068, -0.0825), (-0.0208979, 0.0118016, -0.0825), (-0.022107, 0.00934248, -0.0825), (-0.0230278, 0.00676158, -0.0825), (-0.0236485, 0.00409253, -0.0825), (-0.0239609, 0.00137013, -0.0825), (-0.0239609, -0.00137013, -0.0825), (-0.0236485, -0.00409253, -0.0825), (-0.0230278, -0.00676158, -0.0825), (-0.022107, -0.00934248, -0.0825), (-0.0208979, -0.0118016, -0.0825), (-0.0194164, -0.0141068, -0.0825), (-0.0176818, -0.0162282, -0.0825), (-0.0157167, -0.018138, -0.0825), (-0.0135466, -0.0198113, -0.0825), (-0.0112, -0.0212264, -0.0825), (-0.00870739, -0.0223647, -0.0825), (-0.00610124, -0.0232115, -0.0825), (-0.00341556, -0.0237557, -0.0825), (-0.000685345, -0.0239902, -0.0825), (0.0020538, -0.023912, -0.0825), (0.00476617, -0.023522, -0.0825), (0.00741641, -0.0228254, -0.0825), (0.00996996, -0.0218312, -0.0825), (0.0123935, -0.0205524, -0.0825), (0.0146555, -0.0190057, -0.0825), (0.0167265, -0.0172112, -0.0825), (0.0185794, -0.0151923, -0.0825), (0.0201901, -0.0129754, -0.0825), (0.0215376, -0.0105893, -0.0825), (0.0226043, -0.00806519, -0.0825), (0.0233763, -0.00543592, -0.0825), (0.0238436, -0.00273579, -0.0825), (0.029, 0, -0.0875), (0.0288411, -0.00303133, -0.0875), (0.0283663, -0.00602944, -0.0875), (0.0275806, -0.00896149, -0.0875), (0.0264928, -0.0117954, -0.0875), (0.0251147, -0.0145, -0.0875), (0.0234615, -0.0170458, -0.0875), (0.0215512, -0.0194048, -0.0875), (0.0194048, -0.0215512, -0.0875), (0.0170458, -0.0234615, -0.0875), (0.0145, -0.0251147, -0.0875), (0.0117954, -0.0264928, -0.0875), (0.00896149, -0.0275806, -0.0875), (0.00602944, -0.0283663, -0.0875), (0.00303133, -0.0288411, -0.0875), (-5.32721e-18, -0.029, -0.0875), (-0.00303133, -0.0288411, -0.0875), (-0.00602944, -0.0283663, -0.0875), (-0.00896149, -0.0275806, -0.0875), (-0.0117954, -0.0264928, -0.0875), (-0.0145, -0.0251147, -0.0875), (-0.0170458, -0.0234615, -0.0875), (-0.0194048, -0.0215512, -0.0875), (-0.0215512, -0.0194048, -0.0875), (-0.0234615, -0.0170458, -0.0875), (-0.0251147, -0.0145, -0.0875), (-0.0264928, -0.0117954, -0.0875), (-0.0275806, -0.00896149, -0.0875), (-0.0283663, -0.00602944, -0.0875), (-0.0288411, -0.00303133, -0.0875), (-0.029, 3.55148e-18, -0.0875), (-0.0288411, 0.00303133, -0.0875), (-0.0283663, 0.00602944, -0.0875), (-0.0275806, 0.00896149, -0.0875), (-0.0264928, 0.0117954, -0.0875), (-0.0251147, 0.0145, -0.0875), (-0.0234615, 0.0170458, -0.0875), (-0.0215512, 0.0194048, -0.0875), (-0.0194048, 0.0215512, -0.0875), (-0.0170458, 0.0234615, -0.0875), (-0.0145, 0.0251147, -0.0875), (-0.0117954, 0.0264928, -0.0875), (-0.00896149, 0.0275806, -0.0875), (-0.00602944, 0.0283663, -0.0875), (-0.00303133, 0.0288411, -0.0875), (1.77574e-18, 0.029, -0.0875), (0.00303133, 0.0288411, -0.0875), (0.00602944, 0.0283663, -0.0875), (0.00896149, 0.0275806, -0.0875), (0.0117954, 0.0264928, -0.0875), (0.0145, 0.0251147, -0.0875), (0.0170458, 0.0234615, -0.0875), (0.0194048, 0.0215512, -0.0875), (0.0215512, 0.0194048, -0.0875), (0.0234615, 0.0170458, -0.0875), (0.0251147, 0.0145, -0.0875), (0.0264928, 0.0117954, -0.0875), (0.0275806, 0.00896149, -0.0875), (0.0283663, 0.00602944, -0.0875), (0.0288411, 0.00303133, -0.0875), (0.029, 0, -0.0875), (0.0288411, 0.00303133, -0.0875), (0.0283663, 0.00602944, -0.0875), (0.0275806, 0.00896149, -0.0875), (0.0264928, 0.0117954, -0.0875), (0.0251147, 0.0145, -0.0875), (0.0234615, 0.0170458, -0.0875), (0.0215512, 0.0194048, -0.0875), (0.0194048, 0.0215512, -0.0875), (0.0170458, 0.0234615, -0.0875), (0.0145, 0.0251147, -0.0875), (0.0117954, 0.0264928, -0.0875), (0.00896149, 0.0275806, -0.0875), (0.00602944, 0.0283663, -0.0875), (0.00303133, 0.0288411, -0.0875), (1.77574e-18, 0.029, -0.0875), (-0.00303133, 0.0288411, -0.0875), (-0.00602944, 0.0283663, -0.0875), (-0.00896149, 0.0275806, -0.0875), (-0.0117954, 0.0264928, -0.0875), (-0.0145, 0.0251147, -0.0875), (-0.0170458, 0.0234615, -0.0875), (-0.0194048, 0.0215512, -0.0875), (-0.0215512, 0.0194048, -0.0875), (-0.0234615, 0.0170458, -0.0875), (-0.0251147, 0.0145, -0.0875), (-0.0264928, 0.0117954, -0.0875), (-0.0275806, 0.00896149, -0.0875), (-0.0283663, 0.00602944, -0.0875), (-0.0288411, 0.00303133, -0.0875), (-0.029, 3.55148e-18, -0.0875), (-0.0288411, -0.00303133, -0.0875), (-0.0283663, -0.00602944, -0.0875), (-0.0275806, -0.00896149, -0.0875), (-0.0264928, -0.0117954, -0.0875), (-0.0251147, -0.0145, -0.0875), (-0.0234615, -0.0170458, -0.0875), (-0.0215512, -0.0194048, -0.0875), (-0.0194048, -0.0215512, -0.0875), (-0.0170458, -0.0234615, -0.0875), (-0.0145, -0.0251147, -0.0875), (-0.0117954, -0.0264928, -0.0875), (-0.00896149, -0.0275806, -0.0875), (-0.00602944, -0.0283663, -0.0875), (-0.00303133, -0.0288411, -0.0875), (-5.32721e-18, -0.029, -0.0875), (0.00303133, -0.0288411, -0.0875), (0.00602944, -0.0283663, -0.0875), (0.00896149, -0.0275806, -0.0875), (0.0117954, -0.0264928, -0.0875), (0.0145, -0.0251147, -0.0875), (0.0170458, -0.0234615, -0.0875), (0.0194048, -0.0215512, -0.0875), (0.0215512, -0.0194048, -0.0875), (0.0234615, -0.0170458, -0.0875), (0.0251147, -0.0145, -0.0875), (0.0264928, -0.0117954, -0.0875), (0.0275806, -0.00896149, -0.0875), (0.0283663, -0.00602944, -0.0875), (0.0288411, -0.00303133, -0.0875), (0.044, 0, 0.0875), (0.0438415, -0.00373146, 0.0875), (0.0433671, -0.00743604, 0.0875), (0.0425803, -0.011087, 0.0875), (0.0414866, -0.0146582, 0.0875), (0.0400941, -0.0181237, 0.0875), (0.0384126, -0.0214586, 0.0875), (0.0364544, -0.0246389, 0.0875), (0.0342336, -0.0276417, 0.0875), (0.0317661, -0.0304453, 0.0875), (0.0290697, -0.0330296, 0.0875), (0.0261639, -0.0353759, 0.0875), (0.0230695, -0.0374673, 0.0875), (0.019809, -0.0392887, 0.0875), (0.0164057, -0.0408271, 0.0875), (0.0128842, -0.0420713, 0.0875), (0.00926989, -0.0430124, 0.0875), (0.00558878, -0.0436436, 0.0875), (0.00186741, -0.0439604, 0.0875), (-0.00186741, -0.0439604, 0.0875), (-0.00558878, -0.0436436, 0.0875), (-0.00926989, -0.0430124, 0.0875), (-0.0128842, -0.0420713, 0.0875), (-0.0164057, -0.0408271, 0.0875), (-0.019809, -0.0392887, 0.0875), (-0.0230695, -0.0374673, 0.0875), (-0.0261639, -0.0353759, 0.0875), (-0.0290697, -0.0330296, 0.0875), (-0.0317661, -0.0304453, 0.0875), (-0.0342336, -0.0276417, 0.0875), (-0.0364544, -0.0246389, 0.0875), (-0.0384126, -0.0214586, 0.0875), (-0.0400941, -0.0181237, 0.0875), (-0.0414866, -0.0146582, 0.0875), (-0.0425803, -0.011087, 0.0875), (-0.0433671, -0.00743604, 0.0875), (-0.0438415, -0.00373146, 0.0875), (-0.044, 5.38845e-18, 0.0875), (-0.0438415, 0.00373146, 0.0875), (-0.0433671, 0.00743604, 0.0875), (-0.0425803, 0.011087, 0.0875), (-0.0414866, 0.0146582, 0.0875), (-0.0400941, 0.0181237, 0.0875), (-0.0384126, 0.0214586, 0.0875), (-0.0364544, 0.0246389, 0.0875), (-0.0342336, 0.0276417, 0.0875), (-0.0317661, 0.0304453, 0.0875), (-0.0290697, 0.0330296, 0.0875), (-0.0261639, 0.0353759, 0.0875), (-0.0230695, 0.0374673, 0.0875), (-0.019809, 0.0392887, 0.0875), (-0.0164057, 0.0408271, 0.0875), (-0.0128842, 0.0420713, 0.0875), (-0.00926989, 0.0430124, 0.0875), (-0.00558878, 0.0436436, 0.0875), (-0.00186741, 0.0439604, 0.0875), (0.00186741, 0.0439604, 0.0875), (0.00558878, 0.0436436, 0.0875), (0.00926989, 0.0430124, 0.0875), (0.0128842, 0.0420713, 0.0875), (0.0164057, 0.0408271, 0.0875), (0.019809, 0.0392887, 0.0875), (0.0230695, 0.0374673, 0.0875), (0.0261639, 0.0353759, 0.0875), (0.0290697, 0.0330296, 0.0875), (0.0317661, 0.0304453, 0.0875), (0.0342336, 0.0276417, 0.0875), (0.0364544, 0.0246389, 0.0875), (0.0384126, 0.0214586, 0.0875), (0.0400941, 0.0181237, 0.0875), (0.0414866, 0.0146582, 0.0875), (0.0425803, 0.011087, 0.0875), (0.0433671, 0.00743604, 0.0875), (0.0438415, 0.00373146, 0.0875), (-0.029, 3.55148e-18, -0.0875), (-0.044, 5.38845e-18, 0.0875), (0.039, 0, 0.0875), (0.038843, 0.00349593, 0.0875), (0.0383733, 0.00696372, 0.0875), (0.0375946, 0.0103754, 0.0875), (0.0365132, 0.0137036, 0.0875), (0.0351378, 0.0169215, 0.0875), (0.0334795, 0.0200031, 0.0875), (0.0315517, 0.0229236, 0.0875), (0.0293698, 0.0256596, 0.0875), (0.0269514, 0.028189, 0.0875), (0.0243161, 0.0304914, 0.0875), (0.021485, 0.0325484, 0.0875), (0.0184809, 0.0343432, 0.0875), (0.015328, 0.0358616, 0.0875), (0.0120517, 0.0370912, 0.0875), (0.00867832, 0.0380222, 0.0875), (0.0052351, 0.038647, 0.0875), (0.00174973, 0.0389607, 0.0875), (-0.00174973, 0.0389607, 0.0875), (-0.0052351, 0.038647, 0.0875), (-0.00867832, 0.0380222, 0.0875), (-0.0120517, 0.0370912, 0.0875), (-0.015328, 0.0358616, 0.0875), (-0.0184809, 0.0343432, 0.0875), (-0.021485, 0.0325484, 0.0875), (-0.0243161, 0.0304914, 0.0875), (-0.0269514, 0.028189, 0.0875), (-0.0293698, 0.0256596, 0.0875), (-0.0315517, 0.0229236, 0.0875), (-0.0334795, 0.0200031, 0.0875), (-0.0351378, 0.0169215, 0.0875), (-0.0365132, 0.0137036, 0.0875), (-0.0375946, 0.0103754, 0.0875), (-0.0383733, 0.00696372, 0.0875), (-0.038843, 0.00349593, 0.0875), (-0.039, 4.77612e-18, 0.0875), (-0.038843, -0.00349593, 0.0875), (-0.0383733, -0.00696372, 0.0875), (-0.0375946, -0.0103754, 0.0875), (-0.0365132, -0.0137036, 0.0875), (-0.0351378, -0.0169215, 0.0875), (-0.0334795, -0.0200031, 0.0875), (-0.0315517, -0.0229236, 0.0875), (-0.0293698, -0.0256596, 0.0875), (-0.0269514, -0.028189, 0.0875), (-0.0243161, -0.0304914, 0.0875), (-0.021485, -0.0325484, 0.0875), (-0.0184809, -0.0343432, 0.0875), (-0.015328, -0.0358616, 0.0875), (-0.0120517, -0.0370912, 0.0875), (-0.00867832, -0.0380222, 0.0875), (-0.0052351, -0.038647, 0.0875), (-0.00174973, -0.0389607, 0.0875), (0.00174973, -0.0389607, 0.0875), (0.0052351, -0.038647, 0.0875), (0.00867832, -0.0380222, 0.0875), (0.0120517, -0.0370912, 0.0875), (0.015328, -0.0358616, 0.0875), (0.0184809, -0.0343432, 0.0875), (0.021485, -0.0325484, 0.0875), (0.0243161, -0.0304914, 0.0875), (0.0269514, -0.028189, 0.0875), (0.0293698, -0.0256596, 0.0875), (0.0315517, -0.0229236, 0.0875), (0.0334795, -0.0200031, 0.0875), (0.0351378, -0.0169215, 0.0875), (0.0365132, -0.0137036, 0.0875), (0.0375946, -0.0103754, 0.0875), (0.0383733, -0.00696372, 0.0875), (0.038843, -0.00349593, 0.0875), (0.024, 0, -0.0825), (0.0238436, -0.00273579, -0.0825), (0.0233763, -0.00543592, -0.0825), (0.0226043, -0.00806519, -0.0825), (0.0215376, -0.0105893, -0.0825), (0.0201901, -0.0129754, -0.0825), (0.0185794, -0.0151923, -0.0825), (0.0167265, -0.0172112, -0.0825), (0.0146555, -0.0190057, -0.0825), (0.0123935, -0.0205524, -0.0825), (0.00996996, -0.0218312, -0.0825), (0.00741641, -0.0228254, -0.0825), (0.00476617, -0.023522, -0.0825), (0.0020538, -0.023912, -0.0825), (-0.000685345, -0.0239902, -0.0825), (-0.00341556, -0.0237557, -0.0825), (-0.00610124, -0.0232115, -0.0825), (-0.00870739, -0.0223647, -0.0825), (-0.0112, -0.0212264, -0.0825), (-0.0135466, -0.0198113, -0.0825), (-0.0157167, -0.018138, -0.0825), (-0.0176818, -0.0162282, -0.0825), (-0.0194164, -0.0141068, -0.0825), (-0.0208979, -0.0118016, -0.0825), (-0.022107, -0.00934248, -0.0825), (-0.0230278, -0.00676158, -0.0825), (-0.0236485, -0.00409253, -0.0825), (-0.0239609, -0.00137013, -0.0825), (-0.0239609, 0.00137013, -0.0825), (-0.0236485, 0.00409253, -0.0825), (-0.0230278, 0.00676158, -0.0825), (-0.022107, 0.00934248, -0.0825), (-0.0208979, 0.0118016, -0.0825), (-0.0194164, 0.0141068, -0.0825), (-0.0176818, 0.0162282, -0.0825), (-0.0157167, 0.018138, -0.0825), (-0.0135466, 0.0198113, -0.0825), (-0.0112, 0.0212264, -0.0825), (-0.00870739, 0.0223647, -0.0825), (-0.00610124, 0.0232115, -0.0825), (-0.00341556, 0.0237557, -0.0825), (-0.000685345, 0.0239902, -0.0825), (0.0020538, 0.023912, -0.0825), (0.00476617, 0.023522, -0.0825), (0.00741641, 0.0228254, -0.0825), (0.00996996, 0.0218312, -0.0825), (0.0123935, 0.0205524, -0.0825), (0.0146555, 0.0190057, -0.0825), (0.0167265, 0.0172112, -0.0825), (0.0185794, 0.0151923, -0.0825), (0.0201901, 0.0129754, -0.0825), (0.0215376, 0.0105893, -0.0825), (0.0226043, 0.00806519, -0.0825), (0.0233763, 0.00543592, -0.0825), (0.0238436, 0.00273579, -0.0825), (-0.039, 4.77612e-18, 0.0875), (-0.0239609, -0.00137013, -0.0825)]
    }
}
