# shaker Body_FDM5mm - metres, Z-up, origin = object centre (Fusion origin)
o ShakerFDM5mm
v 0.044000 0.000000 0.087500
v 0.043841 0.003731 0.087500
v 0.043367 0.007436 0.087500
v 0.042580 0.011087 0.087500
v 0.041487 0.014658 0.087500
v 0.040094 0.018124 0.087500
v 0.038413 0.021459 0.087500
v 0.036454 0.024639 0.087500
v 0.034234 0.027642 0.087500
v 0.031766 0.030445 0.087500
v 0.029070 0.033030 0.087500
v 0.026164 0.035376 0.087500
v 0.023070 0.037467 0.087500
v 0.019809 0.039289 0.087500
v 0.016406 0.040827 0.087500
v 0.012884 0.042071 0.087500
v 0.009270 0.043012 0.087500
v 0.005589 0.043644 0.087500
v 0.001867 0.043960 0.087500
v -0.001867 0.043960 0.087500
v -0.005589 0.043644 0.087500
v -0.009270 0.043012 0.087500
v -0.012884 0.042071 0.087500
v -0.016406 0.040827 0.087500
v -0.019809 0.039289 0.087500
v -0.023070 0.037467 0.087500
v -0.026164 0.035376 0.087500
v -0.029070 0.033030 0.087500
v -0.031766 0.030445 0.087500
v -0.034234 0.027642 0.087500
v -0.036454 0.024639 0.087500
v -0.038413 0.021459 0.087500
v -0.040094 0.018124 0.087500
v -0.041487 0.014658 0.087500
v -0.042580 0.011087 0.087500
v -0.043367 0.007436 0.087500
v -0.043841 0.003731 0.087500
v -0.044000 0.000000 0.087500
v -0.043841 -0.003731 0.087500
v -0.043367 -0.007436 0.087500
v -0.042580 -0.011087 0.087500
v -0.041487 -0.014658 0.087500
v -0.040094 -0.018124 0.087500
v -0.038413 -0.021459 0.087500
v -0.036454 -0.024639 0.087500
v -0.034234 -0.027642 0.087500
v -0.031766 -0.030445 0.087500
v -0.029070 -0.033030 0.087500
v -0.026164 -0.035376 0.087500
v -0.023070 -0.037467 0.087500
v -0.019809 -0.039289 0.087500
v -0.016406 -0.040827 0.087500
v -0.012884 -0.042071 0.087500
v -0.009270 -0.043012 0.087500
v -0.005589 -0.043644 0.087500
v -0.001867 -0.043960 0.087500
v 0.001867 -0.043960 0.087500
v 0.005589 -0.043644 0.087500
v 0.009270 -0.043012 0.087500
v 0.012884 -0.042071 0.087500
v 0.016406 -0.040827 0.087500
v 0.019809 -0.039289 0.087500
v 0.023070 -0.037467 0.087500
v 0.026164 -0.035376 0.087500
v 0.029070 -0.033030 0.087500
v 0.031766 -0.030445 0.087500
v 0.034234 -0.027642 0.087500
v 0.036454 -0.024639 0.087500
v 0.038413 -0.021459 0.087500
v 0.040094 -0.018124 0.087500
v 0.041487 -0.014658 0.087500
v 0.042580 -0.011087 0.087500
v 0.043367 -0.007436 0.087500
v 0.043841 -0.003731 0.087500
v 0.039000 0.000000 0.087500
v 0.038843 -0.003496 0.087500
v 0.038373 -0.006964 0.087500
v 0.037595 -0.010375 0.087500
v 0.036513 -0.013704 0.087500
v 0.035138 -0.016921 0.087500
v 0.033480 -0.020003 0.087500
v 0.031552 -0.022924 0.087500
v 0.029370 -0.025660 0.087500
v 0.026951 -0.028189 0.087500
v 0.024316 -0.030491 0.087500
v 0.021485 -0.032548 0.087500
v 0.018481 -0.034343 0.087500
v 0.015328 -0.035862 0.087500
v 0.012052 -0.037091 0.087500
v 0.008678 -0.038022 0.087500
v 0.005235 -0.038647 0.087500
v 0.001750 -0.038961 0.087500
v -0.001750 -0.038961 0.087500
v -0.005235 -0.038647 0.087500
v -0.008678 -0.038022 0.087500
v -0.012052 -0.037091 0.087500
v -0.015328 -0.035862 0.087500
v -0.018481 -0.034343 0.087500
v -0.021485 -0.032548 0.087500
v -0.024316 -0.030491 0.087500
v -0.026951 -0.028189 0.087500
v -0.029370 -0.025660 0.087500
v -0.031552 -0.022924 0.087500
v -0.033480 -0.020003 0.087500
v -0.035138 -0.016921 0.087500
v -0.036513 -0.013704 0.087500
v -0.037595 -0.010375 0.087500
v -0.038373 -0.006964 0.087500
v -0.038843 -0.003496 0.087500
v -0.039000 0.000000 0.087500
v -0.038843 0.003496 0.087500
v -0.038373 0.006964 0.087500
v -0.037595 0.010375 0.087500
v -0.036513 0.013704 0.087500
v -0.035138 0.016921 0.087500
v -0.033480 0.020003 0.087500
v -0.031552 0.022924 0.087500
v -0.029370 0.025660 0.087500
v -0.026951 0.028189 0.087500
v -0.024316 0.030491 0.087500
v -0.021485 0.032548 0.087500
v -0.018481 0.034343 0.087500
v -0.015328 0.035862 0.087500
v -0.012052 0.037091 0.087500
v -0.008678 0.038022 0.087500
v -0.005235 0.038647 0.087500
v -0.001750 0.038961 0.087500
v 0.001750 0.038961 0.087500
v 0.005235 0.038647 0.087500
v 0.008678 0.038022 0.087500
v 0.012052 0.037091 0.087500
v 0.015328 0.035862 0.087500
v 0.018481 0.034343 0.087500
v 0.021485 0.032548 0.087500
v 0.024316 0.030491 0.087500
v 0.026951 0.028189 0.087500
v 0.029370 0.025660 0.087500
v 0.031552 0.022924 0.087500
v 0.033480 0.020003 0.087500
v 0.035138 0.016921 0.087500
v 0.036513 0.013704 0.087500
v 0.037595 0.010375 0.087500
v 0.038373 0.006964 0.087500
v 0.038843 0.003496 0.087500
v 0.024000 0.000000 -0.082500
v 0.023844 0.002736 -0.082500
v 0.023376 0.005436 -0.082500
v 0.022604 0.008065 -0.082500
v 0.021538 0.010589 -0.082500
v 0.020190 0.012975 -0.082500
v 0.018579 0.015192 -0.082500
v 0.016727 0.017211 -0.082500
v 0.014656 0.019006 -0.082500
v 0.012394 0.020552 -0.082500
v 0.009970 0.021831 -0.082500
v 0.007416 0.022825 -0.082500
v 0.004766 0.023522 -0.082500
v 0.002054 0.023912 -0.082500
v -0.000685 0.023990 -0.082500
v -0.003416 0.023756 -0.082500
v -0.006101 0.023212 -0.082500
v -0.008707 0.022365 -0.082500
v -0.011200 0.021226 -0.082500
v -0.013547 0.019811 -0.082500
v -0.015717 0.018138 -0.082500
v -0.017682 0.016228 -0.082500
v -0.019416 0.014107 -0.082500
v -0.020898 0.011802 -0.082500
v -0.022107 0.009342 -0.082500
v -0.023028 0.006762 -0.082500
v -0.023648 0.004093 -0.082500
v -0.023961 0.001370 -0.082500
v -0.023961 -0.001370 -0.082500
v -0.023648 -0.004093 -0.082500
v -0.023028 -0.006762 -0.082500
v -0.022107 -0.009342 -0.082500
v -0.020898 -0.011802 -0.082500
v -0.019416 -0.014107 -0.082500
v -0.017682 -0.016228 -0.082500
v -0.015717 -0.018138 -0.082500
v -0.013547 -0.019811 -0.082500
v -0.011200 -0.021226 -0.082500
v -0.008707 -0.022365 -0.082500
v -0.006101 -0.023212 -0.082500
v -0.003416 -0.023756 -0.082500
v -0.000685 -0.023990 -0.082500
v 0.002054 -0.023912 -0.082500
v 0.004766 -0.023522 -0.082500
v 0.007416 -0.022825 -0.082500
v 0.009970 -0.021831 -0.082500
v 0.012394 -0.020552 -0.082500
v 0.014656 -0.019006 -0.082500
v 0.016727 -0.017211 -0.082500
v 0.018579 -0.015192 -0.082500
v 0.020190 -0.012975 -0.082500
v 0.021538 -0.010589 -0.082500
v 0.022604 -0.008065 -0.082500
v 0.023376 -0.005436 -0.082500
v 0.023844 -0.002736 -0.082500
v 0.029000 0.000000 -0.087500
v 0.028841 -0.003031 -0.087500
v 0.028366 -0.006029 -0.087500
v 0.027581 -0.008961 -0.087500
v 0.026493 -0.011795 -0.087500
v 0.025115 -0.014500 -0.087500
v 0.023461 -0.017046 -0.087500
v 0.021551 -0.019405 -0.087500
v 0.019405 -0.021551 -0.087500
v 0.017046 -0.023461 -0.087500
v 0.014500 -0.025115 -0.087500
v 0.011795 -0.026493 -0.087500
v 0.008961 -0.027581 -0.087500
v 0.006029 -0.028366 -0.087500
v 0.003031 -0.028841 -0.087500
v -0.000000 -0.029000 -0.087500
v -0.003031 -0.028841 -0.087500
v -0.006029 -0.028366 -0.087500
v -0.008961 -0.027581 -0.087500
v -0.011795 -0.026493 -0.087500
v -0.014500 -0.025115 -0.087500
v -0.017046 -0.023461 -0.087500
v -0.019405 -0.021551 -0.087500
v -0.021551 -0.019405 -0.087500
v -0.023461 -0.017046 -0.087500
v -0.025115 -0.014500 -0.087500
v -0.026493 -0.011795 -0.087500
v -0.027581 -0.008961 -0.087500
v -0.028366 -0.006029 -0.087500
v -0.028841 -0.003031 -0.087500
v -0.029000 0.000000 -0.087500
v -0.028841 0.003031 -0.087500
v -0.028366 0.006029 -0.087500
v -0.027581 0.008961 -0.087500
v -0.026493 0.011795 -0.087500
v -0.025115 0.014500 -0.087500
v -0.023461 0.017046 -0.087500
v -0.021551 0.019405 -0.087500
v -0.019405 0.021551 -0.087500
v -0.017046 0.023461 -0.087500
v -0.014500 0.025115 -0.087500
v -0.011795 0.026493 -0.087500
v -0.008961 0.027581 -0.087500
v -0.006029 0.028366 -0.087500
v -0.003031 0.028841 -0.087500
v 0.000000 0.029000 -0.087500
v 0.003031 0.028841 -0.087500
v 0.006029 0.028366 -0.087500
v 0.008961 0.027581 -0.087500
v 0.011795 0.026493 -0.087500
v 0.014500 0.025115 -0.087500
v 0.017046 0.023461 -0.087500
v 0.019405 0.021551 -0.087500
v 0.021551 0.019405 -0.087500
v 0.023461 0.017046 -0.087500
v 0.025115 0.014500 -0.087500
v 0.026493 0.011795 -0.087500
v 0.027581 0.008961 -0.087500
v 0.028366 0.006029 -0.087500
v 0.028841 0.003031 -0.087500
v 0.029000 0.000000 -0.087500
v 0.028841 0.003031 -0.087500
v 0.028366 0.006029 -0.087500
v 0.027581 0.008961 -0.087500
v 0.026493 0.011795 -0.087500
v 0.025115 0.014500 -0.087500
v 0.023461 0.017046 -0.087500
v 0.021551 0.019405 -0.087500
v 0.019405 0.021551 -0.087500
v 0.017046 0.023461 -0.087500
v 0.014500 0.025115 -0.087500
v 0.011795 0.026493 -0.087500
v 0.008961 0.027581 -0.087500
v 0.006029 0.028366 -0.087500
v 0.003031 0.028841 -0.087500
v 0.000000 0.029000 -0.087500
v -0.003031 0.028841 -0.087500
v -0.006029 0.028366 -0.087500
v -0.008961 0.027581 -0.087500
v -0.011795 0.026493 -0.087500
v -0.014500 0.025115 -0.087500
v -0.017046 0.023461 -0.087500
v -0.019405 0.021551 -0.087500
v -0.021551 0.019405 -0.087500
v -0.023461 0.017046 -0.087500
v -0.025115 0.014500 -0.087500
v -0.026493 0.011795 -0.087500
v -0.027581 0.008961 -0.087500
v -0.028366 0.006029 -0.087500
v -0.028841 0.003031 -0.087500
v -0.029000 0.000000 -0.087500
v -0.028841 -0.003031 -0.087500
v -0.028366 -0.006029 -0.087500
v -0.027581 -0.008961 -0.087500
v -0.026493 -0.011795 -0.087500
v -0.025115 -0.014500 -0.087500
v -0.023461 -0.017046 -0.087500
v -0.021551 -0.019405 -0.087500
v -0.019405 -0.021551 -0.087500
v -0.017046 -0.023461 -0.087500
v -0.014500 -0.025115 -0.087500
v -0.011795 -0.026493 -0.087500
v -0.008961 -0.027581 -0.087500
v -0.006029 -0.028366 -0.087500
v -0.003031 -0.028841 -0.087500
v -0.000000 -0.029000 -0.087500
v 0.003031 -0.028841 -0.087500
v 0.006029 -0.028366 -0.087500
v 0.008961 -0.027581 -0.087500
v 0.011795 -0.026493 -0.087500
v 0.014500 -0.025115 -0.087500
v 0.017046 -0.023461 -0.087500
v 0.019405 -0.021551 -0.087500
v 0.021551 -0.019405 -0.087500
v 0.023461 -0.017046 -0.087500
v 0.025115 -0.014500 -0.087500
v 0.026493 -0.011795 -0.087500
v 0.027581 -0.008961 -0.087500
v 0.028366 -0.006029 -0.087500
v 0.028841 -0.003031 -0.087500
v 0.044000 0.000000 0.087500
v 0.043841 -0.003731 0.087500
v 0.043367 -0.007436 0.087500
v 0.042580 -0.011087 0.087500
v 0.041487 -0.014658 0.087500
v 0.040094 -0.018124 0.087500
v 0.038413 -0.021459 0.087500
v 0.036454 -0.024639 0.087500
v 0.034234 -0.027642 0.087500
v 0.031766 -0.030445 0.087500
v 0.029070 -0.033030 0.087500
v 0.026164 -0.035376 0.087500
v 0.023070 -0.037467 0.087500
v 0.019809 -0.039289 0.087500
v 0.016406 -0.040827 0.087500
v 0.012884 -0.042071 0.087500
v 0.009270 -0.043012 0.087500
v 0.005589 -0.043644 0.087500
v 0.001867 -0.043960 0.087500
v -0.001867 -0.043960 0.087500
v -0.005589 -0.043644 0.087500
v -0.009270 -0.043012 0.087500
v -0.012884 -0.042071 0.087500
v -0.016406 -0.040827 0.087500
v -0.019809 -0.039289 0.087500
v -0.023070 -0.037467 0.087500
v -0.026164 -0.035376 0.087500
v -0.029070 -0.033030 0.087500
v -0.031766 -0.030445 0.087500
v -0.034234 -0.027642 0.087500
v -0.036454 -0.024639 0.087500
v -0.038413 -0.021459 0.087500
v -0.040094 -0.018124 0.087500
v -0.041487 -0.014658 0.087500
v -0.042580 -0.011087 0.087500
v -0.043367 -0.007436 0.087500
v -0.043841 -0.003731 0.087500
v -0.044000 0.000000 0.087500
v -0.043841 0.003731 0.087500
v -0.043367 0.007436 0.087500
v -0.042580 0.011087 0.087500
v -0.041487 0.014658 0.087500
v -0.040094 0.018124 0.087500
v -0.038413 0.021459 0.087500
v -0.036454 0.024639 0.087500
v -0.034234 0.027642 0.087500
v -0.031766 0.030445 0.087500
v -0.029070 0.033030 0.087500
v -0.026164 0.035376 0.087500
v -0.023070 0.037467 0.087500
v -0.019809 0.039289 0.087500
v -0.016406 0.040827 0.087500
v -0.012884 0.042071 0.087500
v -0.009270 0.043012 0.087500
v -0.005589 0.043644 0.087500
v -0.001867 0.043960 0.087500
v 0.001867 0.043960 0.087500
v 0.005589 0.043644 0.087500
v 0.009270 0.043012 0.087500
v 0.012884 0.042071 0.087500
v 0.016406 0.040827 0.087500
v 0.019809 0.039289 0.087500
v 0.023070 0.037467 0.087500
v 0.026164 0.035376 0.087500
v 0.029070 0.033030 0.087500
v 0.031766 0.030445 0.087500
v 0.034234 0.027642 0.087500
v 0.036454 0.024639 0.087500
v 0.038413 0.021459 0.087500
v 0.040094 0.018124 0.087500
v 0.041487 0.014658 0.087500
v 0.042580 0.011087 0.087500
v 0.043367 0.007436 0.087500
v 0.043841 0.003731 0.087500
v -0.029000 0.000000 -0.087500
v -0.044000 0.000000 0.087500
v 0.039000 0.000000 0.087500
v 0.038843 0.003496 0.087500
v 0.038373 0.006964 0.087500
v 0.037595 0.010375 0.087500
v 0.036513 0.013704 0.087500
v 0.035138 0.016921 0.087500
v 0.033480 0.020003 0.087500
v 0.031552 0.022924 0.087500
v 0.029370 0.025660 0.087500
v 0.026951 0.028189 0.087500
v 0.024316 0.030491 0.087500
v 0.021485 0.032548 0.087500
v 0.018481 0.034343 0.087500
v 0.015328 0.035862 0.087500
v 0.012052 0.037091 0.087500
v 0.008678 0.038022 0.087500
v 0.005235 0.038647 0.087500
v 0.001750 0.038961 0.087500
v -0.001750 0.038961 0.087500
v -0.005235 0.038647 0.087500
v -0.008678 0.038022 0.087500
v -0.012052 0.037091 0.087500
v -0.015328 0.035862 0.087500
v -0.018481 0.034343 0.087500
v -0.021485 0.032548 0.087500
v -0.024316 0.030491 0.087500
v -0.026951 0.028189 0.087500
v -0.029370 0.025660 0.087500
v -0.031552 0.022924 0.087500
v -0.033480 0.020003 0.087500
v -0.035138 0.016921 0.087500
v -0.036513 0.013704 0.087500
v -0.037595 0.010375 0.087500
v -0.038373 0.006964 0.087500
v -0.038843 0.003496 0.087500
v -0.039000 0.000000 0.087500
v -0.038843 -0.003496 0.087500
v -0.038373 -0.006964 0.087500
v -0.037595 -0.010375 0.087500
v -0.036513 -0.013704 0.087500
v -0.035138 -0.016921 0.087500
v -0.033480 -0.020003 0.087500
v -0.031552 -0.022924 0.087500
v -0.029370 -0.025660 0.087500
v -0.026951 -0.028189 0.087500
v -0.024316 -0.030491 0.087500
v -0.021485 -0.032548 0.087500
v -0.018481 -0.034343 0.087500
v -0.015328 -0.035862 0.087500
v -0.012052 -0.037091 0.087500
v -0.008678 -0.038022 0.087500
v -0.005235 -0.038647 0.087500
v -0.001750 -0.038961 0.087500
v 0.001750 -0.038961 0.087500
v 0.005235 -0.038647 0.087500
v 0.008678 -0.038022 0.087500
v 0.012052 -0.037091 0.087500
v 0.015328 -0.035862 0.087500
v 0.018481 -0.034343 0.087500
v 0.021485 -0.032548 0.087500
v 0.024316 -0.030491 0.087500
v 0.026951 -0.028189 0.087500
v 0.029370 -0.025660 0.087500
v 0.031552 -0.022924 0.087500
v 0.033480 -0.020003 0.087500
v 0.035138 -0.016921 0.087500
v 0.036513 -0.013704 0.087500
v 0.037595 -0.010375 0.087500
v 0.038373 -0.006964 0.087500
v 0.038843 -0.003496 0.087500
v 0.024000 0.000000 -0.082500
v 0.023844 -0.002736 -0.082500
v 0.023376 -0.005436 -0.082500
v 0.022604 -0.008065 -0.082500
v 0.021538 -0.010589 -0.082500
v 0.020190 -0.012975 -0.082500
v 0.018579 -0.015192 -0.082500
v 0.016727 -0.017211 -0.082500
v 0.014656 -0.019006 -0.082500
v 0.012394 -0.020552 -0.082500
v 0.009970 -0.021831 -0.082500
v 0.007416 -0.022825 -0.082500
v 0.004766 -0.023522 -0.082500
v 0.002054 -0.023912 -0.082500
v -0.000685 -0.023990 -0.082500
v -0.003416 -0.023756 -0.082500
v -0.006101 -0.023212 -0.082500
v -0.008707 -0.022365 -0.082500
v -0.011200 -0.021226 -0.082500
v -0.013547 -0.019811 -0.082500
v -0.015717 -0.018138 -0.082500
v -0.017682 -0.016228 -0.082500
v -0.019416 -0.014107 -0.082500
v -0.020898 -0.011802 -0.082500
v -0.022107 -0.009342 -0.082500
v -0.023028 -0.006762 -0.082500
v -0.023648 -0.004093 -0.082500
v -0.023961 -0.001370 -0.082500
v -0.023961 0.001370 -0.082500
v -0.023648 0.004093 -0.082500
v -0.023028 0.006762 -0.082500
v -0.022107 0.009342 -0.082500
v -0.020898 0.011802 -0.082500
v -0.019416 0.014107 -0.082500
v -0.017682 0.016228 -0.082500
v -0.015717 0.018138 -0.082500
v -0.013547 0.019811 -0.082500
v -0.011200 0.021226 -0.082500
v -0.008707 0.022365 -0.082500
v -0.006101 0.023212 -0.082500
v -0.003416 0.023756 -0.082500
v -0.000685 0.023990 -0.082500
v 0.002054 0.023912 -0.082500
v 0.004766 0.023522 -0.082500
v 0.007416 0.022825 -0.082500
v 0.009970 0.021831 -0.082500
v 0.012394 0.020552 -0.082500
v 0.014656 0.019006 -0.082500
v 0.016727 0.017211 -0.082500
v 0.018579 0.015192 -0.082500
v 0.020190 0.012975 -0.082500
v 0.021538 0.010589 -0.082500
v 0.022604 0.008065 -0.082500
v 0.023376 0.005436 -0.082500
v 0.023844 0.002736 -0.082500
v -0.039000 0.000000 0.087500
v -0.023961 -0.001370 -0.082500
f 74 1 75
f 75 1 2
f 75 2 144
f 144 2 3
f 144 3 143
f 143 3 4
f 143 4 142
f 142 4 5
f 142 5 141
f 141 5 6
f 141 6 140
f 140 6 7
f 140 7 139
f 139 7 8
f 139 8 138
f 138 8 9
f 138 9 137
f 137 9 10
f 137 10 136
f 136 10 11
f 136 11 135
f 135 11 12
f 135 12 134
f 134 12 13
f 134 13 133
f 133 13 14
f 133 14 132
f 132 14 15
f 132 15 131
f 131 15 16
f 131 16 130
f 130 16 17
f 130 17 129
f 129 17 18
f 129 18 128
f 128 18 19
f 128 19 20
f 128 20 127
f 127 20 21
f 127 21 126
f 126 21 22
f 126 22 125
f 125 22 23
f 125 23 124
f 124 23 24
f 124 24 123
f 123 24 25
f 123 25 122
f 122 25 26
f 122 26 121
f 121 26 27
f 121 27 120
f 120 27 28
f 120 28 119
f 119 28 29
f 119 29 118
f 118 29 30
f 118 30 117
f 117 30 31
f 117 31 116
f 116 31 32
f 116 32 115
f 115 32 33
f 115 33 114
f 114 33 34
f 114 34 113
f 113 34 35
f 113 35 112
f 112 35 36
f 112 36 111
f 111 36 37
f 111 37 110
f 110 37 38
f 110 38 39
f 110 39 109
f 109 39 40
f 109 40 108
f 108 40 41
f 108 41 107
f 107 41 42
f 107 42 106
f 106 42 43
f 106 43 105
f 105 43 44
f 105 44 104
f 104 44 45
f 104 45 103
f 103 45 46
f 103 46 102
f 102 46 47
f 102 47 101
f 101 47 48
f 101 48 100
f 100 48 49
f 100 49 99
f 99 49 50
f 99 50 98
f 98 50 51
f 98 51 97
f 97 51 52
f 97 52 96
f 96 52 53
f 96 53 95
f 95 53 54
f 95 54 94
f 94 54 55
f 94 55 93
f 93 55 56
f 93 56 57
f 93 57 92
f 92 57 58
f 92 58 91
f 91 58 59
f 91 59 90
f 90 59 60
f 90 60 89
f 89 60 61
f 89 61 88
f 88 61 62
f 88 62 87
f 87 62 63
f 87 63 86
f 86 63 64
f 86 64 85
f 85 64 65
f 85 65 84
f 84 65 66
f 84 66 83
f 83 66 67
f 83 67 82
f 82 67 68
f 82 68 81
f 81 68 69
f 81 69 80
f 80 69 70
f 80 70 79
f 79 70 71
f 79 71 78
f 78 71 72
f 78 72 77
f 77 72 73
f 77 73 76
f 76 73 74
f 76 74 75
f 145 146 199
f 199 146 147
f 199 147 148
f 148 149 199
f 199 149 150
f 199 150 151
f 151 152 199
f 199 152 153
f 199 153 154
f 154 155 199
f 199 155 156
f 199 156 157
f 157 158 199
f 199 158 159
f 199 159 160
f 160 161 199
f 199 161 162
f 199 162 198
f 198 162 163
f 198 163 164
f 164 165 198
f 198 165 166
f 198 166 167
f 167 168 198
f 198 168 169
f 198 169 170
f 170 171 198
f 198 171 172
f 198 172 173
f 173 174 198
f 198 174 175
f 198 175 197
f 197 175 176
f 197 176 196
f 196 176 177
f 196 177 195
f 195 177 178
f 195 178 194
f 194 178 179
f 194 179 193
f 193 179 180
f 193 180 192
f 192 180 181
f 192 181 191
f 191 181 182
f 191 182 190
f 190 182 183
f 190 183 189
f 189 183 184
f 189 184 188
f 188 184 185
f 188 185 187
f 187 185 186
f 201 229 200
f 200 229 230
f 200 230 259
f 259 230 231
f 259 231 258
f 258 231 232
f 258 232 257
f 257 232 233
f 257 233 256
f 256 233 234
f 256 234 255
f 255 234 235
f 255 235 254
f 254 235 236
f 254 236 253
f 253 236 237
f 253 237 252
f 252 237 238
f 252 238 251
f 251 238 239
f 251 239 250
f 250 239 240
f 250 240 249
f 249 240 241
f 249 241 248
f 248 241 242
f 248 242 247
f 247 242 243
f 247 243 246
f 246 243 244
f 246 244 245
f 229 201 228
f 228 201 202
f 228 202 227
f 227 202 203
f 227 203 226
f 226 203 204
f 226 204 225
f 225 204 205
f 225 205 224
f 224 205 206
f 224 206 223
f 223 206 207
f 223 207 222
f 222 207 208
f 222 208 221
f 221 208 209
f 221 209 220
f 220 209 210
f 220 210 219
f 219 210 211
f 219 211 218
f 218 211 212
f 218 212 217
f 217 212 213
f 217 213 216
f 216 213 214
f 216 214 215
f 261 393 260
f 260 393 320
f 260 320 321
f 393 261 392
f 392 261 262
f 392 262 391
f 391 262 263
f 391 263 390
f 390 263 264
f 390 264 389
f 389 264 388
f 388 264 265
f 388 265 387
f 387 265 266
f 387 266 386
f 386 266 267
f 386 267 385
f 385 267 268
f 385 268 384
f 384 268 269
f 384 269 383
f 383 269 382
f 382 269 270
f 382 270 381
f 381 270 271
f 381 271 380
f 380 271 272
f 380 272 379
f 379 272 273
f 379 273 378
f 378 273 377
f 377 273 274
f 377 274 376
f 376 274 275
f 376 275 375
f 375 275 276
f 375 276 374
f 374 276 277
f 374 277 373
f 373 277 372
f 372 277 278
f 372 278 371
f 371 278 279
f 371 279 370
f 370 279 280
f 370 280 369
f 369 280 281
f 369 281 368
f 368 281 367
f 367 281 282
f 367 282 366
f 366 282 283
f 366 283 365
f 365 283 284
f 365 284 364
f 364 284 285
f 364 285 363
f 363 285 286
f 363 286 362
f 362 286 361
f 361 286 287
f 361 287 360
f 360 287 288
f 360 288 359
f 359 288 289
f 359 289 358
f 358 289 394
f 358 394 357
f 395 290 356
f 356 290 291
f 356 291 355
f 355 291 292
f 355 292 354
f 354 292 293
f 354 293 353
f 353 293 294
f 353 294 352
f 352 294 351
f 351 294 295
f 351 295 350
f 350 295 296
f 350 296 349
f 349 296 297
f 349 297 348
f 348 297 298
f 348 298 347
f 347 298 299
f 347 299 346
f 346 299 345
f 345 299 300
f 345 300 344
f 344 300 301
f 344 301 343
f 343 301 302
f 343 302 342
f 342 302 303
f 342 303 341
f 341 303 340
f 340 303 304
f 340 304 339
f 339 304 305
f 339 305 338
f 338 305 306
f 338 306 337
f 337 306 307
f 337 307 336
f 336 307 335
f 335 307 308
f 335 308 334
f 334 308 309
f 334 309 333
f 333 309 310
f 333 310 332
f 332 310 311
f 332 311 331
f 331 311 330
f 330 311 312
f 330 312 329
f 329 312 313
f 329 313 328
f 328 313 314
f 328 314 327
f 327 314 315
f 327 315 326
f 326 315 316
f 326 316 325
f 325 316 324
f 324 316 317
f 324 317 323
f 323 317 318
f 323 318 322
f 322 318 319
f 322 319 321
f 321 319 260
f 465 396 466
f 466 396 397
f 466 397 520
f 520 397 398
f 520 398 519
f 519 398 399
f 519 399 518
f 518 399 400
f 518 400 517
f 517 400 401
f 517 401 402
f 517 402 516
f 516 402 403
f 516 403 515
f 515 403 404
f 515 404 514
f 514 404 405
f 514 405 406
f 514 406 513
f 513 406 407
f 513 407 512
f 512 407 408
f 512 408 511
f 511 408 409
f 511 409 510
f 510 409 410
f 510 410 411
f 510 411 509
f 509 411 412
f 509 412 508
f 508 412 413
f 508 413 507
f 507 413 414
f 507 414 506
f 506 414 415
f 506 415 416
f 506 416 505
f 505 416 417
f 505 417 504
f 504 417 418
f 504 418 503
f 503 418 419
f 503 419 420
f 503 420 502
f 502 420 421
f 502 421 501
f 501 421 422
f 501 422 500
f 500 422 423
f 500 423 499
f 499 423 424
f 499 424 425
f 499 425 498
f 498 425 426
f 498 426 497
f 497 426 427
f 497 427 496
f 496 427 428
f 496 428 495
f 495 428 429
f 495 429 430
f 495 430 494
f 494 430 521
f 494 521 493
f 522 431 432
f 522 432 492
f 492 432 433
f 492 433 434
f 492 434 491
f 491 434 435
f 491 435 490
f 490 435 436
f 490 436 489
f 489 436 437
f 489 437 488
f 488 437 438
f 488 438 439
f 488 439 487
f 487 439 440
f 487 440 486
f 486 440 441
f 486 441 485
f 485 441 442
f 485 442 484
f 484 442 443
f 484 443 444
f 484 444 483
f 483 444 445
f 483 445 482
f 482 445 446
f 482 446 481
f 481 446 447
f 481 447 448
f 481 448 480
f 480 448 449
f 480 449 479
f 479 449 450
f 479 450 478
f 478 450 451
f 478 451 477
f 477 451 452
f 477 452 453
f 477 453 476
f 476 453 454
f 476 454 475
f 475 454 455
f 475 455 474
f 474 455 456
f 474 456 473
f 473 456 457
f 473 457 458
f 473 458 472
f 472 458 459
f 472 459 471
f 471 459 460
f 471 460 470
f 470 460 461
f 470 461 462
f 470 462 469
f 469 462 463
f 469 463 468
f 468 463 464
f 468 464 467
f 467 464 465
f 467 465 466
